<svg xmlns="http://www.w3.org/2000/svg" width="13.933" height="9.868" viewBox="0 0 13.933 9.868">
  <g id="Group_1234" data-name="Group 1234" transform="translate(-1192.02 -552.073)">
    <path id="Path_175" data-name="Path 175" d="M219.475,92.047a.426.426,0,0,0,.6,0l4.8-4.8v2.765a.426.426,0,1,0,.851,0V86.226a.425.425,0,0,0-.426-.426h-3.79a.426.426,0,1,0,0,.851h2.765l-4.8,4.8A.422.422,0,0,0,219.475,92.047Z" transform="translate(1107.011 337.021) rotate(45)" fill="#275682"/>
    <path id="Path_194" data-name="Path 194" d="M7565.92,1816.5s-4.389.023-4.439,4.4,4.439,4.468,4.439,4.468" transform="translate(-6368.96 -1263.925)" fill="none" stroke="#275682" stroke-width="1"/>
  </g>
</svg>
