<svg xmlns="http://www.w3.org/2000/svg" width="66" height="66" viewBox="0 0 66 66">
  <g id="Group_836" data-name="Group 836" opacity="0.2">
    <path id="Path_106" data-name="Path 106" d="M14.678,25.493a4.247,4.247,0,1,0-4.247-4.247A4.251,4.251,0,0,0,14.678,25.493Zm0-6.968a2.722,2.722,0,1,1-2.722,2.722A2.725,2.725,0,0,1,14.678,18.525Z" transform="translate(8.295 6.31)" fill="#275682"/>
    <path id="Path_107" data-name="Path 107" d="M6.762,40.539a.761.761,0,0,0,.5-.19L19.705,29.4l7.856,7.855a.762.762,0,0,0,1.078-1.078l-3.666-3.666,7-7.667,8.587,7.872a.763.763,0,0,0,1.03-1.125L32.442,23.2a.787.787,0,0,0-.549-.2.764.764,0,0,0-.529.248l-7.468,8.18-3.617-3.617a.763.763,0,0,0-1.043-.034L6.258,39.2a.763.763,0,0,0,.5,1.335Z" transform="translate(9.347 4.886)" fill="#275682"/>
    <g id="Rectangle_142" data-name="Rectangle 142" fill="none" stroke="#707070" stroke-width="1">
      <rect width="66" height="66" rx="4" stroke="none"/>
      <rect x="0.5" y="0.5" width="65" height="65" rx="3.5" fill="none"/>
    </g>
  </g>
</svg>
