<?xml version="1.0" encoding="utf-8"?>
<!-- Generator: Adobe Illustrator 23.0.2, SVG Export Plug-In . SVG Version: 6.00 Build 0)  -->
<svg version="1.1" id="Layer_1" xmlns="http://www.w3.org/2000/svg" xmlns:xlink="http://www.w3.org/1999/xlink" x="0px" y="0px"
	 viewBox="0 0 25.8 25.8" style="enable-background:new 0 0 25.8 25.8;" xml:space="preserve">
<style type="text/css">
	.st0{fill:#00A6FF;}
</style>
<g>
	<path class="st0" d="M21.4,13.8v9.4H2.7V4.5h9.4c0.1-0.7,0.2-1.4,0.5-2H0.7v22.7h22.7V13.3C22.7,13.5,22.1,13.7,21.4,13.8z"/>
	<path class="st0" d="M20.5,10c-2.6,0-4.7-2.1-4.7-4.7s2.1-4.7,4.7-4.7s4.7,2.1,4.7,4.7S23.1,10,20.5,10z M20.5,2.6
		c-1.5,0-2.7,1.2-2.7,2.7S19,8,20.5,8s2.7-1.2,2.7-2.7S22,2.6,20.5,2.6z"/>
</g>
</svg>
