<svg xmlns="http://www.w3.org/2000/svg" width="159.87" height="36.805" viewBox="0 0 159.87 36.805">
  <g id="Evergent-logo" transform="translate(-62.023 -229.11)">
    <g id="Group_267" data-name="Group 267" transform="translate(62.023 229.11)">
      <path id="Path_21" data-name="Path 21" d="M91.752,238.924a10.615,10.615,0,0,0-20.686-2.462h-.56a8.486,8.486,0,0,0-.333,16.966,9.764,9.764,0,0,0,9.553,7.786h10.5a11.2,11.2,0,0,0,1.528-22.291Zm-1.528,18.842h-10.5a6.314,6.314,0,0,1-5.992-4.331h9.321a5.134,5.134,0,0,0,5.12-5.136,5.936,5.936,0,0,0-2.883-5.006,10.01,10.01,0,0,0-5.565-1.551A9.762,9.762,0,0,0,70.1,249.97a5.038,5.038,0,0,1,.406-10.059H74v-.191a7.17,7.17,0,0,1,14.339,0v2.544h1.886a7.616,7.616,0,0,1,1.562.16,7.75,7.75,0,0,1-1.562,15.342ZM73.6,249.986a6.319,6.319,0,0,1,6.125-4.795,6.525,6.525,0,0,1,3.719,1.008,2.525,2.525,0,0,1,1.3,2.1,1.687,1.687,0,0,1-1.687,1.687Z" transform="translate(-62.023 -229.11)" fill="#00a6ff"/>
    </g>
    <g id="Group_269" data-name="Group 269" transform="translate(109.176 237.327)">
      <g id="Group_268" data-name="Group 268">
        <path id="Path_22" data-name="Path 22" d="M334.117,284.07h-1.91c-.414,0-.573.032-.732.509l-3.788,10.791-3.756-10.791c-.159-.478-.319-.509-.732-.509h-1.942c-.35,0-.764.032-.573.573L326,298.967c.223.509.35.6.764.6h1.878c.414,0,.541-.1.732-.6l5.316-14.325C334.881,284.1,334.468,284.07,334.117,284.07Z" transform="translate(-305.891 -279.133)" fill="#00a6ff"/>
        <path id="Path_23" data-name="Path 23" d="M498.93,297.5h-4.488c-1.4,0-2.292-.764-2.292-1.942a1.949,1.949,0,0,1,.891-1.687,5.814,5.814,0,0,0,3.565,1.146,6.213,6.213,0,0,0,6.4-6.175l-.063-5.221c0-.477-.191-.668-.669-.668h-1.305c-.478,0-.636.159-.636.668v.541a5.511,5.511,0,0,0-3.884-1.56,6.2,6.2,0,0,0-6.3,6.207,6.569,6.569,0,0,0,.891,3.151,4.633,4.633,0,0,0-2.1,3.82,4.11,4.11,0,0,0,1.719,3.088,3.591,3.591,0,0,0-1.592,3.056c0,3.247,3.756,4.68,7.544,4.68,4.648,0,7.545-1.942,7.545-5.029C504.151,298.872,502.05,297.5,498.93,297.5Zm-2.547-11.778a3.112,3.112,0,1,1-2.8,3.311A2.955,2.955,0,0,1,496.384,285.726Zm.223,17.985c-1.974,0-4.266-.223-4.266-1.942,0-.923.6-1.432,1.942-1.432h4.584c1.369,0,2.005.509,2.005,1.464C500.872,303.488,498.58,303.711,496.607,303.711Z" transform="translate(-433.908 -278.019)" fill="#00a6ff"/>
        <path id="Path_24" data-name="Path 24" d="M634.02,282.606a6.936,6.936,0,0,0-4.616,1.751v-.732c0-.477-.191-.668-.7-.668h-1.687c-.509,0-.669.191-.669.668V297.79c0,.477.159.668.669.668h1.91c.51,0,.669-.191.669-.668V287a5.709,5.709,0,0,1,3.6-1.56,3.245,3.245,0,0,1,3.438,3.406v8.945c0,.477.191.668.669.668h1.942c.478,0,.669-.191.669-.668v-9.677C639.909,284.771,637.3,282.606,634.02,282.606Z" transform="translate(-538.434 -278.019)" fill="#00a6ff"/>
        <path id="Path_25" data-name="Path 25" d="M266.439,282.629c-4.43,0-7.407,3.2-7.407,7.955a7.97,7.97,0,0,0,2.119,5.815,7.866,7.866,0,0,0,5.7,2.078H271c.558,0,.785-.22.785-.761V296.24c0-.57-.22-.792-.785-.792h-4.141c-2.555-.01-4.1-1.219-4.155-3.254h6.964a3.115,3.115,0,0,0,2.694-1.3,5,5,0,0,0,.414-4.3A6.546,6.546,0,0,0,266.439,282.629Zm3.408,6.151a1.234,1.234,0,0,1-1.054.385h-6.084a3.79,3.79,0,0,1,3.762-3.475,3.617,3.617,0,0,1,3.439,2.01A1.306,1.306,0,0,1,269.847,288.78Z" transform="translate(-259.032 -278.037)" fill="#00a6ff"/>
        <path id="Path_26" data-name="Path 26" d="M389.639,282.629c-4.43,0-7.407,3.2-7.407,7.955a7.97,7.97,0,0,0,2.119,5.815,7.866,7.866,0,0,0,5.7,2.078H394.2c.558,0,.786-.22.786-.761V296.24c0-.57-.221-.792-.786-.792h-4.141c-2.555-.01-4.1-1.219-4.155-3.254h6.964a3.115,3.115,0,0,0,2.694-1.3,5,5,0,0,0,.414-4.3A6.545,6.545,0,0,0,389.639,282.629Zm3.408,6.151a1.234,1.234,0,0,1-1.054.385h-6.084a3.79,3.79,0,0,1,3.762-3.475,3.618,3.618,0,0,1,3.439,2.01A1.309,1.309,0,0,1,393.047,288.78Z" transform="translate(-352.745 -278.037)" fill="#00a6ff"/>
        <path id="Path_27" data-name="Path 27" d="M564.289,282.629c-4.43,0-7.407,3.2-7.407,7.955A7.97,7.97,0,0,0,559,296.4a7.866,7.866,0,0,0,5.7,2.078h4.151c.558,0,.786-.22.786-.761V296.24c0-.57-.22-.792-.786-.792h-4.141c-2.555-.01-4.1-1.219-4.155-3.254h6.964a3.115,3.115,0,0,0,2.694-1.3,5,5,0,0,0,.414-4.3A6.545,6.545,0,0,0,564.289,282.629Zm3.408,6.151a1.234,1.234,0,0,1-1.055.385h-6.084a3.79,3.79,0,0,1,3.762-3.475,3.618,3.618,0,0,1,3.439,2.01A1.308,1.308,0,0,1,567.7,288.78Z" transform="translate(-485.594 -278.037)" fill="#00a6ff"/>
        <path id="Path_28" data-name="Path 28" d="M699.564,271.275c.509,0,.669-.191.669-.668v-1.56c0-.477-.159-.668-.669-.668h-3.185v-4.262c0-.482-.161-.675-.675-.675h-1.93c-.514,0-.675.193-.675.675v4.262h-1.558c-.477,0-.668.191-.668.668v1.56c0,.478.191.668.668.668H693.1v6.785c0,3.665,2.122,5.819,5.82,5.819h.611c.514,0,.675-.193.675-.675V281.6c0-.482-.161-.675-.643-.675h-.193a2.728,2.728,0,0,1-2.99-2.893v-6.752Z" transform="translate(-587.515 -263.442)" fill="#00a6ff"/>
        <path id="Path_29" data-name="Path 29" d="M460.8,284.9v-1.62c0-.477-.159-.668-.668-.668l-.267,0a9.12,9.12,0,0,0-4.947,1.592v-.573c0-.477-.159-.668-.668-.668h-1.846c-.51,0-.669.191-.669.668V297.79c0,.477.159.668.669.668h1.91c.509,0,.668-.191.668-.668V287.063s.975-1.5,4.649-1.5l.5,0C460.643,285.565,460.8,285.374,460.8,284.9Z" transform="translate(-405.614 -278.019)" fill="#00a6ff"/>
      </g>
    </g>
  </g>
</svg>
