<svg xmlns="http://www.w3.org/2000/svg" width="29.978" height="23.229" viewBox="0 0 29.978 23.229">
  <g id="Group_428" data-name="Group 428" transform="translate(0 0)">
    <path id="Path_63" data-name="Path 63" d="M2440.375,2807.171c0,.747.033,1.5-.007,2.24a2.105,2.105,0,0,1-2.139,2.139q-2.239.071-4.481,0a2.054,2.054,0,0,1-2.144-2.125c-.064-1.491-.063-2.989,0-4.479a2.107,2.107,0,0,1,2.242-2.161c1.417-.056,2.839-.056,4.256,0a2.193,2.193,0,0,1,2.276,2.373c.019.672,0,1.344,0,2.016Zm-4.38-3.264c-.633,0-1.268.022-1.9-.005-1.009-.043-1.409.436-1.382,1.42.035,1.266.032,2.534,0,3.8-.022.89.384,1.331,1.25,1.34,1.341.015,2.682.006,4.024,0a1.126,1.126,0,0,0,1.282-1.215c.019-1.378.026-2.757,0-4.135a1.093,1.093,0,0,0-1.263-1.213C2437.338,2803.927,2436.667,2803.909,2436,2803.907Z" transform="translate(-2410.427 -2790.588)" fill="#fff"/>
    <path id="Path_64" data-name="Path 64" d="M2388.764,2811.56c-.747,0-1.5.039-2.239-.009a2.056,2.056,0,0,1-2.071-2.079c-.055-1.529-.056-3.062,0-4.59a2.074,2.074,0,0,1,2.181-2.095c1.453-.063,2.913-.062,4.366,0a2.147,2.147,0,0,1,2.212,2.21c.061,1.453.065,2.914,0,4.366a2.15,2.15,0,0,1-2.322,2.2c-.708.022-1.418,0-2.127,0Zm.061-7.654c-.6,0-1.195.033-1.789-.007-1.046-.072-1.521.4-1.512,1.433.011,1.23.018,2.46,0,3.69-.017,1.049.5,1.477,1.515,1.458,1.192-.022,2.386.017,3.578-.011,1.219-.028,1.461-.3,1.479-1.562.008-.559,0-1.118,0-1.677C2392.084,2803.571,2392.453,2803.912,2388.825,2803.905Z" transform="translate(-2373.859 -2790.587)" fill="#fff"/>
    <path id="Path_65" data-name="Path 65" d="M2337.425,2807.216c0-.709-.01-1.418,0-2.126a2.1,2.1,0,0,1,2.181-2.309c1.452-.064,2.912-.065,4.364,0a2.063,2.063,0,0,1,2.161,2.217c.049,1.453.051,2.911,0,4.364a2.072,2.072,0,0,1-2.292,2.189c-1.343.027-2.686.022-4.029,0a2.132,2.132,0,0,1-2.382-2.436C2337.419,2808.485,2337.424,2807.851,2337.425,2807.216Zm7.643-.06c0-.635-.016-1.271,0-1.906.029-.941-.409-1.37-1.351-1.354q-1.961.031-3.924,0a1.158,1.158,0,0,0-1.346,1.272c-.019,1.345-.014,2.691,0,4.036a1.142,1.142,0,0,0,1.263,1.25c1.382.016,2.765.021,4.147,0a1.1,1.1,0,0,0,1.21-1.278C2345.053,2808.5,2345.066,2807.829,2345.067,2807.156Z" transform="translate(-2337.408 -2790.582)" fill="#fff"/>
    <path id="Path_66" data-name="Path 66" d="M2388.835,2748.606c.709,0,1.418-.009,2.126,0a2.018,2.018,0,0,1,2.255,2.087,43,43,0,0,1,0,4.474,2.015,2.015,0,0,1-2.258,2.079c-1.455.011-2.91.016-4.364,0a2,2,0,0,1-2.135-2.078q-.067-2.236,0-4.476a2.014,2.014,0,0,1,2.138-2.082C2387.342,2748.593,2388.089,2748.606,2388.835,2748.606Zm.061,1.019c-.673,0-1.345.011-2.018,0-.812-.018-1.3.351-1.319,1.172-.031,1.419-.028,2.839,0,4.258a1.082,1.082,0,0,0,1.2,1.179q2.073,0,4.147,0a1.061,1.061,0,0,0,1.194-1.166c.012-.747.008-1.494.011-2.241C2392.119,2749.344,2392.333,2749.612,2388.9,2749.625Z" transform="translate(-2373.869 -2748.593)" fill="#fff"/>
    <path id="Path_67" data-name="Path 67" d="M2436.04,2748.609c.709,0,1.417-.01,2.126,0a2,2,0,0,1,2.194,2.027c.065,1.526.065,3.06,0,4.586a1.992,1.992,0,0,1-2.19,2.025q-2.182.022-4.364,0a2.027,2.027,0,0,1-2.2-2.135c-.055-1.453-.056-2.91,0-4.363a2.054,2.054,0,0,1,2.312-2.142C2434.623,2748.6,2435.332,2748.609,2436.04,2748.609Zm-3.315,4.346c0,.636.023,1.272-.005,1.906-.045,1.021.459,1.406,1.434,1.381,1.2-.03,2.392,0,3.588-.009s1.509-.289,1.543-1.527c.032-1.158.029-2.318,0-3.476-.03-1.343-.316-1.6-1.7-1.6-.523,0-1.047,0-1.57,0C2432.357,2749.615,2432.732,2749.361,2432.726,2752.955Z" transform="translate(-2410.431 -2748.596)" fill="#fff"/>
    <path id="Path_68" data-name="Path 68" d="M2341.721,2757.221c-.745,0-1.491.014-2.236,0a1.935,1.935,0,0,1-2.088-1.985q-.06-2.346,0-4.7a1.909,1.909,0,0,1,2-1.952q2.347-.042,4.7,0a1.807,1.807,0,0,1,1.935,1.763c.081,1.708.083,3.427-.006,5.135a1.807,1.807,0,0,1-1.959,1.732C2343.286,2757.239,2342.5,2757.22,2341.721,2757.221Zm3.3-4.292c0-.634-.02-1.269,0-1.9.037-.981-.4-1.45-1.4-1.436-1.305.018-2.61.01-3.915,0a1.151,1.151,0,0,0-1.3,1.214c-.043,1.379-.035,2.76,0,4.139a1.144,1.144,0,0,0,1.256,1.255c1.38,0,2.759.006,4.139,0a1.1,1.1,0,0,0,1.218-1.257C2345.021,2754.271,2345.024,2753.6,2345.025,2752.929Z" transform="translate(-2337.366 -2748.564)" fill="#fff"/>
    <rect id="Rectangle_67" data-name="Rectangle 67" width="29.74" height="1.058" transform="translate(0.084 9.863)" fill="#fff"/>
    <rect id="Rectangle_68" data-name="Rectangle 68" width="29.74" height="1.058" transform="translate(0.084 22.171)" fill="#fff"/>
  </g>
</svg>
