<svg xmlns="http://www.w3.org/2000/svg" width="60.475" height="60.475" viewBox="0 0 60.475 60.475">
  <g id="Group_419" data-name="Group 419" transform="translate(0 -0.475)">
    <rect id="Rectangle_65" data-name="Rectangle 65" width="60.475" height="60.475" transform="translate(0 0.475)" fill="#00a6ff" opacity="0"/>
    <g id="api" transform="translate(13 13.475)">
      <path id="Path_90" data-name="Path 90" d="M34.024,14.349a5.776,5.776,0,0,0-1.157-3.485,5.885,5.885,0,0,0-2.573-1.952,4.766,4.766,0,0,0-4.759-4.65,4.685,4.685,0,0,0-1.686.312,10.176,10.176,0,0,0-3.375-3.208A10.071,10.071,0,0,0,6.5,5.389,7.42,7.42,0,0,0,3.712,19.178c.017.526.043,1.378.077,1.742a1.03,1.03,0,0,0,.857.912l1.481.249a11.009,11.009,0,0,0,1.485,3.593l-.869,1.22a1.029,1.029,0,0,0,.039,1.251c.269.327.551.637.837.923s.6.567.923.836a1.029,1.029,0,0,0,1.251.04l1.22-.869a11.006,11.006,0,0,0,3.593,1.485l.249,1.481a1.03,1.03,0,0,0,.913.857c.422.04.841.061,1.244.061s.822-.021,1.244-.061a1.03,1.03,0,0,0,.913-.857l.249-1.481a11.006,11.006,0,0,0,3.593-1.485l1.22.869a1.03,1.03,0,0,0,1.251-.039c.327-.27.637-.551.923-.837s.567-.6.836-.923a1.03,1.03,0,0,0,.039-1.251l-.869-1.22A11.009,11.009,0,0,0,27.9,22.081l1.481-.249a1.03,1.03,0,0,0,.857-.913c.037-.384.056-.766.059-1.135A5.835,5.835,0,0,0,34.024,14.349ZM28.2,19.177H10.087a.5.5,0,1,0,0,1h.587a6.358,6.358,0,0,0,12.677,0H28.2a5.844,5.844,0,0,0,1.092-.1c-.009.248-.024.5-.049.753a.035.035,0,0,1-.03.025l-1.818.306a.5.5,0,0,0-.407.4A10.043,10.043,0,0,1,25.4,25.4a.5.5,0,0,0,.005.571l1.067,1.5a.034.034,0,0,1,0,.038c-.249.3-.509.589-.773.852s-.55.523-.852.773a.035.035,0,0,1-.038,0l-1.5-1.068a.5.5,0,0,0-.571-.005,10.041,10.041,0,0,1-3.849,1.59.5.5,0,0,0-.4.407l-.306,1.819a.035.035,0,0,1-.025.03c-.39.037-.777.056-1.149.056s-.759-.019-1.149-.056a.034.034,0,0,1-.025-.03l-.306-1.819a.5.5,0,0,0-.4-.407,10.04,10.04,0,0,1-3.849-1.59.5.5,0,0,0-.571.005l-1.5,1.068a.035.035,0,0,1-.039,0c-.3-.249-.589-.509-.852-.773s-.523-.55-.773-.852a.035.035,0,0,1,0-.039l1.067-1.5a.5.5,0,0,0,.005-.571,10.04,10.04,0,0,1-1.591-3.849.5.5,0,0,0-.407-.4l-1.818-.306a.034.034,0,0,1-.03-.025c-.031-.324-.049-.794-.054-1.157a7.386,7.386,0,0,0,2.7.506h.533a.5.5,0,1,0,0-1H7.423A6.424,6.424,0,0,1,6.862,6.353a.5.5,0,0,0,.4-.276,9.14,9.14,0,0,1,3.289-3.668,9.067,9.067,0,0,1,9.417-.182,9.173,9.173,0,0,1,3.254,3.231.5.5,0,0,0,.649.193,3.72,3.72,0,0,1,1.661-.391A3.767,3.767,0,0,1,29.3,9.022c0,.04,0,.086-.006.136,0,.026,0,.051,0,.077a.5.5,0,0,0,.349.5,4.829,4.829,0,0,1-1.438,9.44Zm-5.849,1a5.36,5.36,0,0,1-10.675,0Zm0,0" fill="#00a6ff"/>
      <path id="Path_91" data-name="Path 91" d="M132.945,320.668a.5.5,0,0,0-.348.613,8.492,8.492,0,0,0,16.367,0,.5.5,0,1,0-.961-.265,7.495,7.495,0,0,1-14.445,0A.5.5,0,0,0,132.945,320.668Zm0,0" transform="translate(-123.769 -299.341)" fill="#00a6ff"/>
      <path id="Path_92" data-name="Path 92" d="M119.583,120.015l-.951-2.663a.518.518,0,0,0-.482-.331h-3.77l1.3-3.627a.258.258,0,0,1,.485,0l.772,2.163a.5.5,0,0,0,.939-.335l-.773-2.163a1.254,1.254,0,0,0-2.362,0l-2.484,6.956a.5.5,0,1,0,.939.335l.833-2.333h3.788l.833,2.333a.5.5,0,1,0,.939-.335Zm0,0" transform="translate(-104.765 -104.769)" fill="#00a6ff"/>
      <path id="Path_93" data-name="Path 93" d="M240.876,112.227h-1.864a1.032,1.032,0,0,0-1.031,1.031v6.925a.5.5,0,0,0,1,0v-6.925a.034.034,0,0,1,.034-.034h1.864a1.9,1.9,0,1,1,0,3.8h-.266a.5.5,0,0,0,0,1h.266a2.9,2.9,0,1,0,0-5.791Zm0,0" transform="translate(-222.166 -104.769)" fill="#00a6ff"/>
      <path id="Path_94" data-name="Path 94" d="M345.19,112.227a.5.5,0,0,0-.5.5v7.458a.5.5,0,1,0,1,0v-7.458A.5.5,0,0,0,345.19,112.227Zm0,0" transform="translate(-321.785 -104.769)" fill="#00a6ff"/>
    </g>
  </g>
</svg>
