<svg id="calendar" xmlns="http://www.w3.org/2000/svg" width="20" height="20" viewBox="0 0 20 20">
  <g id="Group_280" data-name="Group 280">
    <g id="Group_279" data-name="Group 279">
      <path id="Path_30" data-name="Path 30" d="M17.656,1.563h-.937V0H15.156V1.563H4.844V0H3.281V1.563H2.344A2.346,2.346,0,0,0,0,3.906v13.75A2.346,2.346,0,0,0,2.344,20H17.656A2.346,2.346,0,0,0,20,17.656V3.906A2.346,2.346,0,0,0,17.656,1.563Zm.781,16.094a.782.782,0,0,1-.781.781H2.344a.782.782,0,0,1-.781-.781V7.344H18.438Zm0-11.875H1.563V3.906a.782.782,0,0,1,.781-.781h.938V4.688H4.844V3.125H15.156V4.688h1.563V3.125h.938a.782.782,0,0,1,.781.781Z" fill="#275682"/>
    </g>
  </g>
  <g id="Group_282" data-name="Group 282" transform="translate(3.312 8.896)">
    <g id="Group_281" data-name="Group 281">
      <rect id="Rectangle_34" data-name="Rectangle 34" width="1.743" height="1.743" fill="#275682"/>
    </g>
  </g>
  <g id="Group_284" data-name="Group 284" transform="translate(6.034 8.896)">
    <g id="Group_283" data-name="Group 283">
      <rect id="Rectangle_35" data-name="Rectangle 35" width="1.743" height="1.743" fill="#275682"/>
    </g>
  </g>
  <g id="Group_286" data-name="Group 286" transform="translate(9.128 8.896)">
    <g id="Group_285" data-name="Group 285">
      <rect id="Rectangle_36" data-name="Rectangle 36" width="1.743" height="1.743" fill="#275682"/>
    </g>
  </g>
  <g id="Group_288" data-name="Group 288" transform="translate(12.223 8.896)">
    <g id="Group_287" data-name="Group 287">
      <rect id="Rectangle_37" data-name="Rectangle 37" width="1.743" height="1.743" fill="#275682"/>
    </g>
  </g>
  <g id="Group_290" data-name="Group 290" transform="translate(14.945 8.896)">
    <g id="Group_289" data-name="Group 289">
      <rect id="Rectangle_38" data-name="Rectangle 38" width="1.743" height="1.743" fill="#275682"/>
    </g>
  </g>
  <g id="Group_292" data-name="Group 292" transform="translate(3.312 11.991)">
    <g id="Group_291" data-name="Group 291">
      <rect id="Rectangle_39" data-name="Rectangle 39" width="1.743" height="1.743" fill="#275682"/>
    </g>
  </g>
  <g id="Group_294" data-name="Group 294" transform="translate(6.034 11.991)">
    <g id="Group_293" data-name="Group 293">
      <rect id="Rectangle_40" data-name="Rectangle 40" width="1.743" height="1.743" fill="#275682"/>
    </g>
  </g>
  <g id="Group_296" data-name="Group 296" transform="translate(9.128 11.991)">
    <g id="Group_295" data-name="Group 295">
      <rect id="Rectangle_41" data-name="Rectangle 41" width="1.743" height="1.743" fill="#275682"/>
    </g>
  </g>
  <g id="Group_298" data-name="Group 298" transform="translate(12.223 11.991)">
    <g id="Group_297" data-name="Group 297">
      <rect id="Rectangle_42" data-name="Rectangle 42" width="1.743" height="1.743" fill="#275682"/>
    </g>
  </g>
  <g id="Group_300" data-name="Group 300" transform="translate(3.312 15.085)">
    <g id="Group_299" data-name="Group 299">
      <rect id="Rectangle_43" data-name="Rectangle 43" width="1.743" height="1.743" fill="#275682"/>
    </g>
  </g>
  <g id="Group_302" data-name="Group 302" transform="translate(6.034 15.085)">
    <g id="Group_301" data-name="Group 301">
      <rect id="Rectangle_44" data-name="Rectangle 44" width="1.743" height="1.743" fill="#275682"/>
    </g>
  </g>
  <g id="Group_304" data-name="Group 304" transform="translate(9.128 15.085)">
    <g id="Group_303" data-name="Group 303">
      <rect id="Rectangle_45" data-name="Rectangle 45" width="1.743" height="1.743" fill="#275682"/>
    </g>
  </g>
  <g id="Group_306" data-name="Group 306" transform="translate(12.223 15.085)">
    <g id="Group_305" data-name="Group 305">
      <rect id="Rectangle_46" data-name="Rectangle 46" width="1.743" height="1.743" fill="#275682"/>
    </g>
  </g>
  <g id="Group_308" data-name="Group 308" transform="translate(14.945 11.991)">
    <g id="Group_307" data-name="Group 307">
      <rect id="Rectangle_47" data-name="Rectangle 47" width="1.743" height="1.743" fill="#275682"/>
    </g>
  </g>
</svg>
