<svg xmlns="http://www.w3.org/2000/svg" width="127" height="85" viewBox="0 0 127 85">
  <g id="Group_2030" data-name="Group 2030" transform="translate(-620 -215)">
    <g id="Group_945" data-name="Group 945" transform="translate(7 -116)">
      <g id="Group_943" data-name="Group 943" transform="translate(0.5)">
        <g id="Ellipse_17" data-name="Ellipse 17" transform="translate(717 374)" fill="none" stroke="#232781" stroke-width="1" opacity="0.2">
          <circle cx="2.5" cy="2.5" r="2.5" stroke="none"/>
          <circle cx="2.5" cy="2.5" r="2" fill="none"/>
        </g>
        <g id="Group_940" data-name="Group 940" transform="translate(-127 16)" opacity="0.05">
          <line id="Line_96" data-name="Line 96" x2="61" transform="translate(757.5 355.5)" fill="none" stroke="#232781" stroke-linecap="round" stroke-width="10"/>
          <line id="Line_97" data-name="Line 97" x2="61" transform="translate(744.5 375.5)" fill="none" stroke="#232781" stroke-linecap="round" stroke-width="10"/>
          <path id="Path_221" data-name="Path 221" d="M0,0H36V20H0Z" transform="translate(760 356)" fill="#232781"/>
          <line id="Line_98" data-name="Line 98" x2="31" transform="translate(782.5 365.5)" fill="none" stroke="#fff" stroke-linecap="round" stroke-width="10"/>
          <line id="Line_99" data-name="Line 99" x2="17" transform="translate(746.5 365.5)" fill="none" stroke="#fff" stroke-linecap="round" stroke-width="10"/>
        </g>
        <g id="Group_939" data-name="Group 939" transform="translate(662.5 336.5)" opacity="0.1">
          <line id="Line_96-2" data-name="Line 96" x1="38" transform="translate(23 20.5)" fill="none" stroke="#232781" stroke-linecap="round" stroke-width="10"/>
          <line id="Line_98-2" data-name="Line 98" x1="31" transform="translate(5 10.5)" fill="none" stroke="#fff" stroke-linecap="round" stroke-width="10"/>
          <line id="Line_99-2" data-name="Line 99" x1="17" transform="translate(55 10.5)" fill="none" stroke="#fff" stroke-linecap="round" stroke-width="10"/>
        </g>
      </g>
    </g>
    <g id="Polygon_1" data-name="Polygon 1" transform="translate(634 215)" fill="#fff">
      <path d="M 82.42343139648438 80.5 L 15.576584815979 80.5 C 13.23256969451904 80.5 12.07087707519531 78.92740631103516 11.68021583557129 78.25129699707031 C 11.28955364227295 77.57515716552734 10.50730800628662 75.7833251953125 11.6779842376709 73.75257110595703 L 45.10139846801758 15.7731876373291 C 46.27341461181641 13.74011039733887 48.21824645996094 13.5206184387207 49 13.5206184387207 C 49.78175354003906 13.5206184387207 51.72658538818359 13.74011039733887 52.89860153198242 15.7731876373291 L 86.32201385498047 73.75257110595703 C 87.49269104003906 75.7833251953125 86.71044921875 77.57517242431641 86.31978607177734 78.25129699707031 C 85.92912292480469 78.92742156982422 84.76744842529297 80.5 82.42343139648438 80.5 Z" stroke="none"/>
      <path d="M 49 18.02060699462891 L 15.57657623291016 76.00000762939453 L 82.42341613769531 76.00000762939453 L 49.03736114501953 18.02488708496094 C 49.0336799621582 18.02371215820312 49.01977920532227 18.02060699462891 49 18.02060699462891 M 49 9.020606994628906 C 52.03290557861328 9.020606994628906 55.06581115722656 10.52231597900391 56.79719924926758 13.52574920654297 L 90.22061920166016 71.50514984130859 C 93.679443359375 77.50514984130859 89.34898376464844 84.99999237060547 82.42341613769531 85.00000762939453 L 15.57657623291016 85.00000762939453 C 8.651016235351562 84.99999237060547 4.320556640625 77.50514984130859 7.779380798339844 71.50514984130859 L 41.20280075073242 13.52574920654297 C 42.93418884277344 10.52231597900391 45.96709442138672 9.020606994628906 49 9.020606994628906 Z" stroke="none" fill="#f2f3f8"/>
    </g>
  </g>
</svg>
