<?xml version="1.0" encoding="utf-8"?>
<!-- Generator: Adobe Illustrator 23.0.2, SVG Export Plug-In . SVG Version: 6.00 Build 0)  -->
<svg version="1.1" id="Layer_1" xmlns="http://www.w3.org/2000/svg" xmlns:xlink="http://www.w3.org/1999/xlink" x="0px" y="0px"
	 viewBox="0 0 60.5 60.5" style="enable-background:new 0 0 60.5 60.5;" xml:space="preserve">
<g id="Group_419" transform="translate(0 0)">
	<g id="settings" transform="translate(15.105 15.105)">
		<g id="Path_57">
			<path fill="#00A6FF" d="M14.6,7C10.4,7,7,10.4,7,14.6s3.4,7.6,7.6,7.6s7.6-3.4,7.6-7.6C22.2,10.4,18.8,7,14.6,7z M14.6,21.1
				c-3.6,0-6.5-2.9-6.5-6.5s2.9-6.5,6.5-6.5s6.5,2.9,6.5,6.5l0,0C21.1,18.2,18.2,21.1,14.6,21.1z"/>
		</g>
		<g id="Path_58">
			<path fill="#00A6FF" d="M27.7,11.4h-1.1c-0.3-1-0.7-2-1.2-3l0.8-0.8c0.6-0.6,0.6-1.5,0-2.1L23.7,3c-0.6-0.6-1.5-0.6-2.1,0l-0.8,0.8
				c-0.9-0.5-1.9-0.9-3-1.2V1.5c0-0.8-0.7-1.5-1.5-1.5h-3.5c-0.8,0-1.5,0.7-1.5,1.5v1.1c-1,0.3-2,0.7-3,1.2L7.6,3
				C7,2.5,6.1,2.5,5.5,3L3,5.5C2.5,6.1,2.5,7,3,7.6l0.8,0.8c-0.5,0.9-0.9,1.9-1.2,3H1.5C0.7,11.4,0,12,0,12.9v3.5
				c0,0.8,0.7,1.5,1.5,1.5h1.1c0.3,1,0.7,2,1.2,3L3,21.6c-0.6,0.6-0.6,1.5,0,2.1l2.5,2.5c0.6,0.6,1.5,0.6,2.1,0l0.8-0.8
				c0.9,0.5,1.9,0.9,3,1.2v1.1c0,0.8,0.7,1.5,1.5,1.5h3.5c0.8,0,1.5-0.7,1.5-1.5v-1.1c1-0.3,2-0.7,3-1.2l0.8,0.8
				c0.6,0.6,1.5,0.6,2.1,0l2.5-2.5c0.6-0.6,0.6-1.5,0-2.1l-0.8-0.8c0.5-0.9,0.9-1.9,1.2-3h1.1c0.8,0,1.5-0.7,1.5-1.5v-3.5
				C29.2,12,28.5,11.4,27.7,11.4z M28.1,16.3c0,0.2-0.2,0.4-0.4,0.4h0h-1.9l-0.1,0.4c-0.3,1.2-0.8,2.4-1.4,3.4L24,21l1.4,1.4
				c0.2,0.2,0.2,0.4,0,0.6c0,0,0,0,0,0l-2.5,2.5c-0.2,0.2-0.4,0.2-0.6,0c0,0,0,0,0,0L21,24l-0.4,0.2c-1.1,0.7-2.2,1.1-3.4,1.4
				l-0.4,0.1v1.9c0,0.2-0.2,0.4-0.4,0.4h0h-3.5c-0.2,0-0.4-0.2-0.4-0.4l0,0v-1.9L12,25.7c-1.2-0.3-2.4-0.8-3.4-1.4L8.2,24l-1.4,1.4
				c-0.2,0.2-0.4,0.2-0.6,0c0,0,0,0,0,0l-2.5-2.5c-0.2-0.2-0.2-0.4,0-0.6c0,0,0,0,0,0L5.2,21L5,20.6c-0.7-1.1-1.1-2.2-1.4-3.4
				l-0.1-0.4H1.5c-0.2,0-0.4-0.2-0.4-0.4l0,0v-3.5c0-0.2,0.2-0.4,0.4-0.4h1.9L3.5,12C3.8,10.8,4.3,9.7,5,8.6l0.2-0.4L3.8,6.9
				c-0.2-0.2-0.2-0.4,0-0.6c0,0,0,0,0,0l2.5-2.5c0.2-0.2,0.4-0.2,0.6,0c0,0,0,0,0,0l1.4,1.4L8.6,5c1.1-0.7,2.2-1.1,3.4-1.4l0.4-0.1
				V1.5c0-0.2,0.2-0.4,0.4-0.4h3.5c0.2,0,0.4,0.2,0.4,0.4v1.9l0.4,0.1c1.2,0.3,2.4,0.8,3.4,1.4L21,5.2l1.4-1.4
				c0.2-0.2,0.4-0.2,0.6,0c0,0,0,0,0,0l2.5,2.5c0.2,0.2,0.2,0.4,0,0.6c0,0,0,0,0,0L24,8.2l0.2,0.4c0.7,1.1,1.1,2.2,1.4,3.4l0.1,0.4
				h1.9c0.2,0,0.4,0.2,0.4,0.4v0L28.1,16.3z"/>
		</g>
		<g id="Path_59">
			<path fill="#00A6FF" d="M14.6,8.7L14.6,8.7c-3.3,0-5.9,2.7-5.9,5.9c0,3.3,2.7,5.9,5.9,5.9c3.3,0,5.9-2.7,5.9-5.9
				C20.5,11.4,17.9,8.7,14.6,8.7z M14.6,18.4c-2.1,0-3.8-1.7-3.8-3.8c0-2.1,1.7-3.8,3.8-3.8c2.1,0,3.8,1.7,3.8,3.8
				C18.4,16.7,16.7,18.4,14.6,18.4z"/>
		</g>
	</g>
</g>
</svg>
