<svg xmlns="http://www.w3.org/2000/svg" width="29.3" height="29.2" viewBox="0 0 29.3 29.2">
  <g id="configuration_icon" transform="translate(-15.105 -15.105)">
    <g id="settings" transform="translate(15.105 15.105)">
      <g id="Path_57">
        <path id="Path_109" data-name="Path 109" d="M14.6,7a7.6,7.6,0,1,0,7.6,7.6A7.6,7.6,0,0,0,14.6,7Zm0,14.1a6.5,6.5,0,1,1,6.5-6.5h0A6.487,6.487,0,0,1,14.6,21.1Z" fill="#fff"/>
      </g>
      <g id="Path_58">
        <path id="Path_110" data-name="Path 110" d="M27.7,11.4H26.6a18.77,18.77,0,0,0-1.2-3l.8-.8a1.45,1.45,0,0,0,0-2.1L23.7,3a1.45,1.45,0,0,0-2.1,0l-.8.8a13.426,13.426,0,0,0-3-1.2V1.5A1.538,1.538,0,0,0,16.3,0H12.8a1.538,1.538,0,0,0-1.5,1.5V2.6a18.77,18.77,0,0,0-3,1.2L7.6,3A1.657,1.657,0,0,0,5.5,3L3,5.5A1.657,1.657,0,0,0,3,7.6l.8.8a13.426,13.426,0,0,0-1.2,3H1.5A1.473,1.473,0,0,0,0,12.9v3.5a1.538,1.538,0,0,0,1.5,1.5H2.6a18.77,18.77,0,0,0,1.2,3l-.8.7a1.45,1.45,0,0,0,0,2.1l2.5,2.5a1.45,1.45,0,0,0,2.1,0l.8-.8a13.426,13.426,0,0,0,3,1.2v1.1a1.538,1.538,0,0,0,1.5,1.5h3.5a1.538,1.538,0,0,0,1.5-1.5V26.6a18.77,18.77,0,0,0,3-1.2l.8.8a1.45,1.45,0,0,0,2.1,0l2.5-2.5a1.45,1.45,0,0,0,0-2.1l-.8-.8a13.426,13.426,0,0,0,1.2-3h1.1a1.538,1.538,0,0,0,1.5-1.5V12.8A1.617,1.617,0,0,0,27.7,11.4Zm.4,4.9a.43.43,0,0,1-.4.4H25.8l-.1.4a12.81,12.81,0,0,1-1.4,3.4L24,21l1.4,1.4a.375.375,0,0,1,0,.6h0l-2.5,2.5a.375.375,0,0,1-.6,0h0L21,24l-.4.2a11.122,11.122,0,0,1-3.4,1.4l-.4.1v1.9a.43.43,0,0,1-.4.4H12.9a.43.43,0,0,1-.4-.4h0V25.7H12a12.81,12.81,0,0,1-3.4-1.4L8.2,24,6.8,25.4a.375.375,0,0,1-.6,0h0L3.7,22.9a.375.375,0,0,1,0-.6h0L5.2,21,5,20.6a11.122,11.122,0,0,1-1.4-3.4l-.1-.4h-2a.43.43,0,0,1-.4-.4h0V12.9a.43.43,0,0,1,.4-.4H3.4l.1-.5A11.4,11.4,0,0,1,5,8.6l.2-.4L3.8,6.9a.375.375,0,0,1,0-.6h0L6.3,3.8a.375.375,0,0,1,.6,0h0L8.3,5.2,8.6,5A11.122,11.122,0,0,1,12,3.6l.4-.1v-2a.43.43,0,0,1,.4-.4h3.5a.43.43,0,0,1,.4.4V3.4l.4.1a12.81,12.81,0,0,1,3.4,1.4l.5.3,1.4-1.4a.375.375,0,0,1,.6,0h0l2.5,2.5a.375.375,0,0,1,0,.6h0L24,8.2l.2.4A11.122,11.122,0,0,1,25.6,12l.1.4h1.9a.43.43,0,0,1,.4.4h0Z" fill="#fff"/>
      </g>
      <g id="Path_59">
        <path id="Path_111" data-name="Path 111" d="M14.6,8.7h0a5.9,5.9,0,1,0,5.9,5.9A5.911,5.911,0,0,0,14.6,8.7Zm0,9.7a3.8,3.8,0,1,1,3.8-3.8A3.8,3.8,0,0,1,14.6,18.4Z" fill="#fff"/>
      </g>
    </g>
  </g>
</svg>
