<svg xmlns="http://www.w3.org/2000/svg" width="37.762" height="29.949" viewBox="0 0 37.762 29.949">
  <g id="picture_1_" data-name="picture (1)" transform="translate(0 -6)" opacity="0.3">
    <path id="Path_95" data-name="Path 95" d="M37.111,6H.651A.651.651,0,0,0,0,6.651V35.3a.651.651,0,0,0,.651.651h36.46a.651.651,0,0,0,.651-.651V6.651A.651.651,0,0,0,37.111,6ZM36.46,34.647H1.3V7.3H36.46Z" fill="#275682"/>
    <g id="Group_606" data-name="Group 606" transform="translate(3.906 13.162)">
      <path id="Path_96" data-name="Path 96" d="M14.057,24.252a3.626,3.626,0,1,0-3.626-3.626A3.63,3.63,0,0,0,14.057,24.252Zm0-5.95a2.324,2.324,0,1,1-2.324,2.324A2.327,2.327,0,0,1,14.057,18.3Z" transform="translate(-7.546 -17)" fill="#275682"/>
      <path id="Path_97" data-name="Path 97" d="M6.651,37.975a.649.649,0,0,0,.43-.162L17.7,28.462l6.707,6.707a.651.651,0,1,0,.921-.921l-3.13-3.13,5.977-6.546,7.332,6.721a.651.651,0,0,0,.88-.96l-7.813-7.162A.672.672,0,0,0,28.107,23a.652.652,0,0,0-.452.212L21.279,30.2l-3.088-3.088a.652.652,0,0,0-.891-.029L6.221,36.835a.651.651,0,0,0,.43,1.14Z" transform="translate(-5.999 -19.094)" fill="#275682"/>
    </g>
  </g>
</svg>
