<svg id="_16-pencil" data-name="16-pencil" xmlns="http://www.w3.org/2000/svg" width="11.291" height="11.304" viewBox="0 0 11.291 11.304">
  <path id="Path_275" data-name="Path 275" d="M118.8,2.775l-1.239-1.239a1.316,1.316,0,0,0-1.859,0l-.671.671,3.1,3.1.671-.671a1.327,1.327,0,0,0,0-1.859Z" transform="translate(-107.893 -1.151)" fill="#232781"/>
  <path id="Path_276" data-name="Path 276" d="M.019.055,6.215,0,6.188,2.715,0,2.784Z" transform="translate(1.845 6.342) rotate(-45)" fill="#232781"/>
  <path id="Path_277" data-name="Path 277" d="M0,0,6.184.018V1.77L0,1.753Z" transform="translate(3.678 8.192) rotate(-45)" fill="#232781"/>
  <path id="Path_278" data-name="Path 278" d="M5.84,123.4l1.392,1.392L9.4,124.2l-2.967-2.967Z" transform="translate(-5.412 -113.91)" fill="#232781"/>
  <path id="Path_279" data-name="Path 279" d="M-.335,170.454a.442.442,0,0,0,.538.538L.89,170.8l-1.038-1.038Z" transform="translate(0.349 -159.702)" fill="#232781"/>
</svg>
