<svg xmlns="http://www.w3.org/2000/svg" width="15.002" height="15" viewBox="0 0 15.002 15">
  <g id="edit" transform="translate(0 -0.028)">
    <path id="Path_45" data-name="Path 45" d="M14.03,1A3.309,3.309,0,0,0,9.348,1L.762,9.581a.429.429,0,0,0-.121.246L0,14.539a.428.428,0,0,0,.121.361.437.437,0,0,0,.3.128.347.347,0,0,0,.058,0l2.838-.384a.432.432,0,0,0-.115-.857l-2.276.307.444-3.286,3.459,3.459a.437.437,0,0,0,.3.128.423.423,0,0,0,.3-.128L14.03,5.682A3.307,3.307,0,0,0,14.03,1ZM9.514,2.054,10.955,3.5,3.121,11.33,1.679,9.888Zm-4.37,11.3-1.41-1.41,7.834-7.834,1.41,1.41ZM13.58,4.9,10.131,1.45A2.45,2.45,0,0,1,13.58,4.9Z" transform="translate(0 0)" fill="#fff"/>
  </g>
</svg>
