<svg xmlns="http://www.w3.org/2000/svg" width="59.683" height="84.347" viewBox="0 0 59.683 84.347">
  <g id="Group_1494" data-name="Group 1494" transform="translate(-6486.094 -1972)">
    <path id="Path_234" data-name="Path 234" d="M13.474,53.965A2.354,2.354,0,0,1,11.228,55.1l-4.285.278c-1.187.077-3.17,1.1-4.061-.792-.7-1.5-.391-10.547-.4-12.33l-.066-9.635L2.285,13.35a4.25,4.25,0,0,1,.42-2.357,1.086,1.086,0,0,1,.557-.341,10.387,10.387,0,0,1,8.493.908,3.668,3.668,0,0,1,1.812,1.955,11.814,11.814,0,0,1,.322,4.664,178.12,178.12,0,0,0-.064,19.532c.133,2.532.336,11.572.151,14.112a5.431,5.431,0,0,1-.5,2.142Z" transform="translate(6483.808 1982.975)" fill="rgba(0,166,255,0.2)" fill-rule="evenodd"/>
    <g id="Compound_Path" data-name="Compound Path" transform="translate(6471.5 1966)" fill="#275682">
      <path d="M 61.17382431030273 82.11594390869141 L 30.6021556854248 82.11594390869141 C 27.30277442932129 82.11594390869141 24.20087432861328 80.83109283447266 21.86786460876465 78.49808502197266 C 19.53485488891602 76.16507720947266 18.2500057220459 73.06317901611328 18.2500057220459 69.7637939453125 L 18.2500057220459 31.33082580566406 C 18.2500057220459 30.29946517944336 19.08907508850098 29.46039581298828 20.12042617797852 29.46039581298828 L 30.6021556854248 29.46039581298828 L 31.3521556854248 29.46039581298828 L 31.3521556854248 28.71039581298828 L 31.3521556854248 21.72258567810059 C 31.3521556854248 17.7232666015625 32.90957641601562 13.96331596374512 35.73752593994141 11.13536548614502 C 38.56546401977539 8.307425498962402 42.32540512084961 6.750005722045898 46.32472610473633 6.750005722045898 C 50.32404708862305 6.750005722045898 54.083984375 8.307415962219238 56.91193389892578 11.13536548614502 C 59.73988342285156 13.96331596374512 61.29730606079102 17.7232551574707 61.29730606079102 21.72257614135742 L 61.29730606079102 28.71039581298828 L 61.29730606079102 29.46039581298828 L 62.04730606079102 29.46039581298828 L 71.65554809570312 29.46039581298828 C 72.68690490722656 29.46039581298828 73.52597808837891 30.29946517944336 73.52597808837891 31.33082580566406 L 73.52597808837891 69.7637939453125 C 73.52597808837891 73.06317901611328 72.24112701416016 76.16507720947266 69.90811157226562 78.49808502197266 C 67.57510375976562 80.83109283447266 64.47320556640625 82.11594390869141 61.17382431030273 82.11594390869141 Z M 21.99086570739746 33.20125579833984 L 21.99086570739746 33.95125579833984 L 21.99086570739746 69.7637939453125 C 21.99086570739746 74.5120849609375 25.8538761138916 78.37509918212891 30.6021556854248 78.37509918212891 L 61.17382431030273 78.37509918212891 C 65.92211151123047 78.37509918212891 69.78512573242188 74.5120849609375 69.78512573242188 69.7637939453125 L 69.78512573242188 33.95125579833984 L 69.78512573242188 33.20125579833984 L 69.03512573242188 33.20125579833984 L 62.04730606079102 33.20125579833984 L 61.29730606079102 33.20125579833984 L 61.29730606079102 33.95125579833984 L 61.29730606079102 43.55948638916016 C 61.29730606079102 44.59085464477539 60.45823669433594 45.42993545532227 59.42688369750977 45.42993545532227 C 58.39552688598633 45.42993545532227 57.55645370483398 44.59085464477539 57.55645370483398 43.55948638916016 L 57.55645370483398 33.95125579833984 L 57.55645370483398 33.20125579833984 L 56.80645370483398 33.20125579833984 L 35.84301376342773 33.20125579833984 L 35.09301376342773 33.20125579833984 L 35.09301376342773 33.95125579833984 L 35.09301376342773 43.55948638916016 C 35.09301376342773 44.59085464477539 34.25393676757812 45.42993545532227 33.22257614135742 45.42993545532227 C 32.19122695922852 45.42993545532227 31.3521556854248 44.59085464477539 31.3521556854248 43.55948638916016 L 31.3521556854248 33.95125579833984 L 31.3521556854248 33.20125579833984 L 30.6021556854248 33.20125579833984 L 22.74086570739746 33.20125579833984 L 21.99086570739746 33.20125579833984 Z M 46.32472610473633 10.49086570739746 C 43.32462692260742 10.49086570739746 40.50409698486328 11.65916538238525 38.38270568847656 13.78055572509766 C 36.26131439208984 15.90194606781006 35.09301376342773 18.72247505187988 35.09301376342773 21.72257614135742 L 35.09301376342773 28.71039581298828 L 35.09301376342773 29.46039581298828 L 35.84301376342773 29.46039581298828 L 56.80645370483398 29.46039581298828 L 57.55645370483398 29.46039581298828 L 57.55645370483398 28.71039581298828 L 57.55645370483398 21.72257614135742 C 57.55645370483398 18.72247505187988 56.38815689086914 15.90194606781006 54.26675415039062 13.78055572509766 C 52.14536666870117 11.65916538238525 49.32482528686523 10.49086570739746 46.32472610473633 10.49086570739746 Z" stroke="none"/>
      <path d="M 46.32472991943359 7.499992370605469 C 42.52574157714844 7.499992370605469 38.95413970947266 8.979408264160156 36.26785278320312 11.66569519042969 C 33.58156204223633 14.35198211669922 32.10215377807617 17.92359161376953 32.10215377807617 21.72257995605469 L 32.10215377807617 28.71039581298828 L 32.10215377807617 30.21039581298828 L 30.60215377807617 30.21039581298828 L 20.12042236328125 30.21039581298828 C 19.50261688232422 30.21039581298828 19 30.71301651000977 19 31.33081817626953 L 19 69.7637939453125 C 19 72.86283874511719 20.20683288574219 75.77639770507812 22.39818572998047 77.96775054931641 C 24.58953857421875 80.15910339355469 27.50310516357422 81.36593627929688 30.60215377807617 81.36593627929688 L 61.173828125 81.36593627929688 C 64.27287292480469 81.36593627929688 67.18643188476562 80.15910339355469 69.37778472900391 77.96775054931641 C 71.56913757324219 75.77639770507812 72.77597045898438 72.86283874511719 72.77597045898438 69.7637939453125 L 72.77597045898438 31.33081817626953 C 72.77597045898438 30.71301651000977 72.27335357666016 30.21039581298828 71.65554809570312 30.21039581298828 L 62.04729461669922 30.21039581298828 L 60.54729461669922 30.21039581298828 L 60.54729461669922 28.71039581298828 L 60.54729461669922 21.72257995605469 C 60.54729461669922 17.92359161376953 59.06788635253906 14.35198211669922 56.38159561157227 11.66569519042969 C 53.69530868530273 8.979408264160156 50.12370681762695 7.499992370605469 46.32472991943359 7.499992370605469 M 58.30645370483398 30.21039581298828 L 56.80645370483398 30.21039581298828 L 35.8430061340332 30.21039581298828 L 34.3430061340332 30.21039581298828 L 34.3430061340332 28.71039581298828 L 34.3430061340332 21.72257995605469 C 34.3430061340332 18.52214813232422 35.58931732177734 15.51327514648438 37.85237503051758 13.25022888183594 C 40.11541748046875 10.98717498779297 43.12429809570312 9.740859985351562 46.32472991943359 9.740859985351562 C 49.52516174316406 9.740859985351562 52.53404235839844 10.98717498779297 54.79708480834961 13.25022888183594 C 57.06014251708984 15.51327514648438 58.30645370483398 18.52214813232422 58.30645370483398 21.72257995605469 L 58.30645370483398 28.71039581298828 L 58.30645370483398 30.21039581298828 M 33.22257232666016 44.67992782592773 C 33.84038543701172 44.67992782592773 34.3430061340332 44.17730712890625 34.3430061340332 43.55949401855469 L 34.3430061340332 33.95124816894531 L 34.3430061340332 32.45124816894531 L 35.8430061340332 32.45124816894531 L 56.80645370483398 32.45124816894531 L 58.30645370483398 32.45124816894531 L 58.30645370483398 33.95124816894531 L 58.30645370483398 43.55949401855469 C 58.30645370483398 44.17730712890625 58.80907440185547 44.67992782592773 59.42688369750977 44.67992782592773 C 60.04468536376953 44.67992782592773 60.54729461669922 44.17730712890625 60.54729461669922 43.55949401855469 L 60.54729461669922 33.95124816894531 L 60.54729461669922 32.45124816894531 L 62.04729461669922 32.45124816894531 L 69.03512573242188 32.45124816894531 L 70.53512573242188 32.45124816894531 L 70.53512573242188 33.95124816894531 L 70.53512573242188 69.7637939453125 C 70.53512573242188 74.92562866210938 66.33566284179688 79.12509155273438 61.173828125 79.12509155273438 L 30.60215377807617 79.12509155273438 C 25.44031524658203 79.12509155273438 21.24085998535156 74.92562866210938 21.24085998535156 69.7637939453125 L 21.24085998535156 33.95124816894531 L 21.24085998535156 32.45124816894531 L 22.74085998535156 32.45124816894531 L 30.60215377807617 32.45124816894531 L 32.10215377807617 32.45124816894531 L 32.10215377807617 33.95124816894531 L 32.10215377807617 43.55949401855469 C 32.10215377807617 44.17730712890625 32.60477447509766 44.67992782592773 33.22257232666016 44.67992782592773 M 46.32472991943359 5.999992370605469 C 55.00805282592773 5.999992370605469 62.04729461669922 13.03923797607422 62.04729461669922 21.72257995605469 L 62.04729461669922 28.71039581298828 L 71.65554809570312 28.71039581298828 C 73.10276031494141 28.71039581298828 74.27597045898438 29.88359451293945 74.27597045898438 31.33081817626953 L 74.27597045898438 69.7637939453125 C 74.27597045898438 76.99991607666016 68.40995025634766 82.86593627929688 61.173828125 82.86593627929688 L 30.60215377807617 82.86593627929688 C 23.36602783203125 82.86593627929688 17.5 76.99991607666016 17.5 69.7637939453125 L 17.5 31.33081817626953 C 17.5 29.88359451293945 18.67319488525391 28.71039581298828 20.12042236328125 28.71039581298828 L 30.60215377807617 28.71039581298828 L 30.60215377807617 21.72257995605469 C 30.60215377807617 13.03923797607422 37.64139556884766 5.999992370605469 46.32472991943359 5.999992370605469 Z M 56.80645370483398 28.71039581298828 L 56.80645370483398 21.72257995605469 C 56.80645370483398 15.93368530273438 52.11362838745117 11.24085998535156 46.32472991943359 11.24085998535156 C 40.53583145141602 11.24085998535156 35.8430061340332 15.93368530273438 35.8430061340332 21.72257995605469 L 35.8430061340332 28.71039581298828 L 56.80645370483398 28.71039581298828 Z M 33.22257232666016 46.17992782592773 C 31.77535247802734 46.17992782592773 30.60215377807617 45.00671768188477 30.60215377807617 43.55949401855469 L 30.60215377807617 33.95124816894531 L 22.74085998535156 33.95124816894531 L 22.74085998535156 69.7637939453125 C 22.74085998535156 74.10546875 26.26047515869141 77.62509155273438 30.60215377807617 77.62509155273438 L 61.173828125 77.62509155273438 C 65.51549530029297 77.62509155273438 69.03512573242188 74.10546875 69.03512573242188 69.7637939453125 L 69.03512573242188 33.95124816894531 L 62.04729461669922 33.95124816894531 L 62.04729461669922 43.55949401855469 C 62.04729461669922 45.00671768188477 60.87410736083984 46.17992782592773 59.42688369750977 46.17992782592773 C 57.97964096069336 46.17992782592773 56.80645370483398 45.00671768188477 56.80645370483398 43.55949401855469 L 56.80645370483398 33.95124816894531 L 35.8430061340332 33.95124816894531 L 35.8430061340332 43.55949401855469 C 35.8430061340332 45.00671768188477 34.66980743408203 46.17992782592773 33.22257232666016 46.17992782592773 Z" stroke="none" fill="#fff"/>
    </g>
    <path id="Path_235" data-name="Path 235" d="M28.162,92.741c16.052,1.217,24.732.093,35.331,1.031,5.436.481,5.164,4.453-2.041,4.78C51.608,99,36.8,97.484,26.906,97.333c-12.248-.188-7.8-5.28,1.256-4.593Z" transform="translate(6475.287 1957.714)" fill="rgba(39,86,130,0.15)" fill-rule="evenodd"/>
  </g>
</svg>
