<svg xmlns="http://www.w3.org/2000/svg" width="14.166" height="9.966" viewBox="0 0 14.166 9.966">
  <g id="eye-close-up" transform="translate(0 -161.525)">
    <path id="Path_61" data-name="Path 61" d="M7.083,161.525A7.765,7.765,0,0,0,.028,166.37a.35.35,0,0,0,0,.277,7.765,7.765,0,0,0,7.055,4.845,7.765,7.765,0,0,0,7.055-4.845.35.35,0,0,0,0-.277A7.765,7.765,0,0,0,7.083,161.525Zm0,8.421a3.447,3.447,0,0,1,0-6.875,3.447,3.447,0,0,1,0,6.875Z" transform="translate(0)" fill="#275682"/>
    <circle id="Ellipse_7" data-name="Ellipse 7" cx="1.78" cy="1.78" r="1.78" transform="translate(5.303 164.727)" fill="#275682"/>
  </g>
</svg>
