<svg xmlns="http://www.w3.org/2000/svg" width="10.584" height="12.899" viewBox="0 0 10.584 12.899">
  <g id="lock" transform="translate(0.2 0.2)" opacity="0.4">
    <path id="Path_88" data-name="Path 88" d="M13.8,4.655v-1.3A3.547,3.547,0,0,0,10.092,0a3.547,3.547,0,0,0-3.7,3.356v1.3A1.675,1.675,0,0,0,5,6.3v4.523A1.675,1.675,0,0,0,6.673,12.5h6.838a1.675,1.675,0,0,0,1.673-1.673V6.3A1.675,1.675,0,0,0,13.8,4.655Zm-6.944-1.3A3.085,3.085,0,0,1,10.092.463a3.085,3.085,0,0,1,3.24,2.893V4.629H6.852Zm7.87,7.469a1.212,1.212,0,0,1-1.21,1.21H6.673a1.212,1.212,0,0,1-1.21-1.21V6.3a1.212,1.212,0,0,1,1.21-1.21h6.838a1.212,1.212,0,0,1,1.21,1.21Z" transform="translate(-5 0)" fill="#275682" stroke="#275682" stroke-width="0.4"/>
    <path id="Path_89" data-name="Path 89" d="M23.926,28a.927.927,0,0,0-.926.926v1.389a.926.926,0,0,0,1.852,0V28.926A.927.927,0,0,0,23.926,28Zm.463,2.315a.463.463,0,0,1-.926,0V28.926a.463.463,0,0,1,.926,0Z" transform="translate(-18.834 -21.519)" fill="#275682" stroke="#275682" stroke-width="0.4"/>
  </g>
</svg>
