<?xml version="1.0" encoding="utf-8"?>
<!-- Generator: Adobe Illustrator 23.0.4, SVG Export Plug-In . SVG Version: 6.00 Build 0)  -->
<svg version="1.1" id="Layer_1" xmlns="http://www.w3.org/2000/svg" xmlns:xlink="http://www.w3.org/1999/xlink" x="0px" y="0px"
	 viewBox="0 0 20 20" style="enable-background:new 0 0 20 20;" xml:space="preserve">
<style type="text/css">
	.st0{fill:#275682;stroke:#275682;stroke-width:0.5;}
</style>
<path id="Path_30" class="st0" d="M17.8,4.8c0,0.2,0.1,0.3,0.3,0.3c0.2,0,0.3-0.1,0.3-0.3c0-2.5-2-4.5-4.6-4.5
	c-1.4,0-2.7,0.6-3.5,1.7c-0.6-0.6-1.6-0.6-2.3,0C7.6,2.4,7.4,3.2,7.8,3.8C5.5,4.4,4,6.5,4,8.8C4,9,4.1,9.1,4.2,9.1
	c0.2,0,0.3-0.1,0.3-0.3c0-2.2,1.6-4.2,3.8-4.6l0,0c0.3-0.1,0.6-0.1,0.9-0.1h0.1C9,6.6,10.7,9,13.2,9.3c0.2,0,0.4,0,0.7,0h0.1v1.4
	c0,1.1,0.5,2.2,1.3,2.9l0.3,0.3c0.3,0.3,0.5,0.7,0.5,1.2v0c0,0.8-0.7,1.5-1.5,1.5H3.7c-0.8,0-1.5-0.7-1.5-1.5c0-0.5,0.2-0.9,0.6-1.2
	l0.4-0.3c0.9-0.7,1.4-1.8,1.4-2.9v-0.6c0-0.2-0.1-0.3-0.3-0.3c-0.2,0-0.3,0.1-0.3,0.3v0.6c0,1-0.4,1.9-1.2,2.5l-0.3,0.3
	c-0.5,0.4-0.8,1-0.8,1.6c0,1.1,0.9,2.1,2.1,2.1h3c0,0,0,0.1,0,0.1c0,1.4,1.1,2.5,2.5,2.5s2.5-1.1,2.5-2.5c0,0,0-0.1,0-0.1h3
	c1.1,0,2-0.9,2.1-2.1v0c0-0.6-0.3-1.2-0.7-1.6l-0.3-0.3c-0.7-0.6-1.1-1.5-1.1-2.4V9.3c0.8-0.1,1.5-0.4,2.1-0.9
	c0.8-0.6,1.3-1.4,1.6-2.3c0-0.1,0-0.3-0.2-0.4c-0.1,0-0.3,0-0.4,0.2c0,0,0,0,0,0c-0.2,0.8-0.7,1.5-1.4,2c-1.8,1.3-4.2,1-5.6-0.8
	s-1-4.2,0.8-5.6s4.2-1,5.6,0.8C17.5,3.1,17.8,3.9,17.8,4.8L17.8,4.8z M11.1,17.2c0,1.1-0.9,1.9-1.9,1.9s-1.9-0.9-1.9-1.9
	c0,0,0-0.1,0-0.1L11.1,17.2C11.1,17.1,11.1,17.2,11.1,17.2z M9.2,3.6c-0.3,0-0.6,0-0.9,0.1C8,3.2,8.1,2.6,8.5,2.2S9.6,2,10,2.4
	C9.7,2.8,9.6,3.2,9.5,3.6C9.4,3.6,9.3,3.6,9.2,3.6z"/>
</svg>
