<svg xmlns="http://www.w3.org/2000/svg" width="32" height="32" viewBox="0 0 32 32">
  <g id="Notification-wht-ico" transform="translate(-1247 -13)">
    <rect id="Rectangle_14" data-name="Rectangle 14" width="32" height="32" transform="translate(1247 13)" fill="#fff" opacity="0"/>
    <path id="Path_30" data-name="Path 30" d="M16.668,4.683a.293.293,0,0,0,.586,0A4.69,4.69,0,0,0,8.93,1.726,1.641,1.641,0,0,0,6.3,3.631a5.422,5.422,0,0,0-3.925,5.2.293.293,0,0,0,.586,0A4.833,4.833,0,0,1,6.846,4.1h0a4.891,4.891,0,0,1,.941-.091l.134,0a4.683,4.683,0,0,0,4.642,5.355h.055v1.417A3.831,3.831,0,0,0,14,13.733l.352.293a1.544,1.544,0,0,1,.558,1.19v.018a1.532,1.532,0,0,1-1.532,1.529H2.118A1.532,1.532,0,0,1,.586,15.235a1.547,1.547,0,0,1,.578-1.206l.362-.292a3.823,3.823,0,0,0,1.433-2.992V10.1a.293.293,0,0,0-.586,0v.642a3.24,3.24,0,0,1-1.214,2.535L.8,13.573A2.133,2.133,0,0,0,0,15.235,2.119,2.119,0,0,0,2.118,17.35H5.185c0,.029,0,.058,0,.087a2.567,2.567,0,0,0,5.134,0c0-.029,0-.058,0-.087h3.067A2.119,2.119,0,0,0,15.5,15.235v-.018a2.128,2.128,0,0,0-.769-1.64l-.352-.293a3.247,3.247,0,0,1-1.173-2.5V9.322A4.642,4.642,0,0,0,15.4,8.413,4.718,4.718,0,0,0,17.065,6a.293.293,0,1,0-.562-.165,4.128,4.128,0,0,1-1.458,2.109,4.1,4.1,0,1,1,1.622-3.263ZM9.731,17.437a1.981,1.981,0,0,1-3.962,0c0-.029,0-.058,0-.087H9.729C9.73,17.379,9.731,17.408,9.731,17.437ZM7.788,3.423A5.5,5.5,0,0,0,6.9,3.5,1.055,1.055,0,0,1,8.579,2.215a4.658,4.658,0,0,0-.535,1.214C7.96,3.425,7.874,3.423,7.788,3.423Zm0,0" transform="translate(1254 20)" fill="#275682" stroke="#275682" stroke-width="0.5"/>
  </g>
</svg>
