<svg id="Group_2034" data-name="Group 2034" xmlns="http://www.w3.org/2000/svg" width="16" height="9.5" viewBox="0 0 16 9.5">
  <path id="Path_237" data-name="Path 237" d="M2,15.339v5.608a.575.575,0,0,0,.6.546H17.4a.575.575,0,0,0,.6-.546V15.339a.6.6,0,0,0-1.2,0V20.4H3.2V15.339A.6.6,0,0,0,2,15.339Z" transform="translate(-2 -11.992)" fill="#275682"/>
  <path id="Path_238" data-name="Path 238" d="M6.446,19.646h7.135a.5.5,0,1,0,0-1H6.446a.5.5,0,1,0,0,1Z" transform="translate(-1.913 -13.241)" fill="#275682"/>
  <path id="Path_239" data-name="Path 239" d="M6.446,19.646h7.135a.5.5,0,1,0,0-1H6.446a.5.5,0,1,0,0,1Z" transform="translate(-1.913 -15.943)" fill="#275682"/>
  <path id="Path_240" data-name="Path 240" d="M6.446,19.646h7.135a.5.5,0,1,0,0-1H6.446a.5.5,0,1,0,0,1Z" transform="translate(-1.913 -18.646)" fill="#275682"/>
</svg>
