<svg version="1.1" id="Layer_1" xmlns="http://www.w3.org/2000/svg" xmlns:xlink="http://www.w3.org/1999/xlink" x="0px" y="0px"
	 viewBox="0 0 60.5 60.5" style="enable-background:new 0 0 60.5 60.5;" xml:space="preserve">

<g>
	<path fill="#00A6FF" d="M36.7,33v9.4H18V23.7h9.4c0.1-0.7,0.2-1.4,0.5-2H16v22.7h22.7V32.5C38,32.7,37.4,32.9,36.7,33z"/>
		<path class="st1" d="M35.8,29.2c-2.6,0-4.7-2.1-4.7-4.7s2.1-4.7,4.7-4.7s4.7,2.1,4.7,4.7S38.4,29.2,35.8,29.2z M35.8,21.8
			c-1.5,0-2.7,1.2-2.7,2.7s1.2,2.7,2.7,2.7c1.5,0,2.7-1.2,2.7-2.7S37.3,21.8,35.8,21.8z"/>
</g>
</svg>
