<svg xmlns="http://www.w3.org/2000/svg" width="32" height="32" viewBox="0 0 32 32">
  <g id="Group_396" data-name="Group 396" transform="translate(-1298 -13)">
    <rect id="Rectangle_15" data-name="Rectangle 15" width="32" height="32" transform="translate(1298 13)" fill="#275682" opacity="0"/>
    <g id="user" transform="translate(1305.168 18.602)">
      <path id="Path_31" data-name="Path 31" d="M91.914,9.455A4.8,4.8,0,0,0,95.366,8.07,4.5,4.5,0,0,0,96.8,4.727a4.5,4.5,0,0,0-1.43-3.343,5,5,0,0,0-6.9,0,4.5,4.5,0,0,0-1.43,3.343,4.5,4.5,0,0,0,1.43,3.343A4.805,4.805,0,0,0,91.914,9.455ZM89.3,2.2a3.779,3.779,0,0,1,5.224,0,3.364,3.364,0,0,1,1.082,2.529,3.364,3.364,0,0,1-1.082,2.529,3.779,3.779,0,0,1-5.224,0,3.364,3.364,0,0,1-1.083-2.529A3.364,3.364,0,0,1,89.3,2.2Zm0,0" transform="translate(-83.695)" fill="#275682"/>
      <path id="Path_32" data-name="Path 32" d="M16.646,252.928a11.471,11.471,0,0,0-.162-1.24,9.621,9.621,0,0,0-.311-1.247,6.1,6.1,0,0,0-.522-1.163,4.395,4.395,0,0,0-.788-1.007,3.483,3.483,0,0,0-1.131-.7,3.976,3.976,0,0,0-1.444-.257,1.482,1.482,0,0,0-.783.326c-.235.15-.509.324-.816.516a4.719,4.719,0,0,1-1.055.456,4.172,4.172,0,0,1-2.581,0A4.7,4.7,0,0,1,6,248.159c-.3-.19-.578-.364-.816-.516a1.48,1.48,0,0,0-.783-.326,3.971,3.971,0,0,0-1.444.257,3.479,3.479,0,0,0-1.132.7,4.4,4.4,0,0,0-.787,1.007,6.113,6.113,0,0,0-.522,1.163A9.644,9.644,0,0,0,.2,251.688a11.394,11.394,0,0,0-.162,1.241c-.027.375-.04.765-.04,1.159a3.228,3.228,0,0,0,.986,2.466,3.59,3.59,0,0,0,2.542.91h9.63a3.59,3.59,0,0,0,2.542-.91,3.227,3.227,0,0,0,.986-2.466C16.686,253.692,16.672,253.3,16.646,252.928Zm-1.754,2.792a2.418,2.418,0,0,1-1.734.593H3.528a2.418,2.418,0,0,1-1.734-.593,2.107,2.107,0,0,1-.622-1.633c0-.368.012-.731.037-1.08a10.277,10.277,0,0,1,.146-1.117,8.506,8.506,0,0,1,.273-1.1,4.977,4.977,0,0,1,.425-.946,3.258,3.258,0,0,1,.579-.744,2.31,2.31,0,0,1,.753-.459,2.742,2.742,0,0,1,.923-.175c.041.021.114.062.233.138.241.154.519.33.826.522a5.862,5.862,0,0,0,1.325.581,5.364,5.364,0,0,0,3.3,0,5.867,5.867,0,0,0,1.325-.581c.314-.2.584-.368.825-.522.118-.076.191-.117.233-.138a2.744,2.744,0,0,1,.923.175,2.314,2.314,0,0,1,.753.459,3.249,3.249,0,0,1,.579.745,4.961,4.961,0,0,1,.425.945,8.486,8.486,0,0,1,.273,1.1,10.363,10.363,0,0,1,.146,1.117h0c.025.347.037.71.038,1.079A2.107,2.107,0,0,1,14.892,255.72Zm0,0" transform="translate(0 -237.464)" fill="#275682"/>
    </g>
  </g>
</svg>
