<?xml version="1.0" encoding="utf-8"?>
<!-- Generator: Adobe Illustrator 23.0.4, SVG Export Plug-In . SVG Version: 6.00 Build 0)  -->
<svg version="1.1" id="Layer_1" xmlns="http://www.w3.org/2000/svg" xmlns:xlink="http://www.w3.org/1999/xlink" x="0px" y="0px"
	 viewBox="0 0 20 20" style="enable-background:new 0 0 20 20;" xml:space="preserve">
<style type="text/css">
	.st0{fill:#275682;stroke:#275682;stroke-width:0.5;}
</style>
<path id="_002-search" class="st0" d="M19.3,19.1l-5.4-5.7c3-3,3-7.9,0-10.9s-7.9-3-10.9,0s-3,7.9,0,10.9c2.8,2.8,7.3,3,10.4,0.5
	l5.5,5.7c0.1,0.2,0.4,0.2,0.5,0C19.4,19.5,19.4,19.3,19.3,19.1C19.3,19.1,19.3,19.1,19.3,19.1z M8.4,15c-3.8,0-7-3.1-7-7
	c0-3.8,3.1-7,7-7c3.8,0,7,3.1,7,7c0,0,0,0,0,0C15.3,11.9,12.2,15,8.4,15z"/>
</svg>
