<svg xmlns="http://www.w3.org/2000/svg" width="14.776" height="20.004" viewBox="0 0 14.776 20.004">
  <g id="Group" transform="translate(-17.5 -6)">
    <g id="Compound_Path" data-name="Compound Path" fill="#275682">
      <path d="M 28.86613464355469 25.95439720153809 L 20.90983581542969 25.95439720153809 C 19.05721473693848 25.95439720153809 17.55000495910645 24.44717788696289 17.55000495910645 22.59455680847168 L 17.55000495910645 12.59235763549805 C 17.55000495910645 12.24388694763184 17.83350563049316 11.96038722991943 18.18196487426758 11.96038722991943 L 20.90983581542969 11.96038722991943 L 20.95983505249023 11.96038722991943 L 20.95983505249023 11.91038703918457 L 20.95983505249023 10.09180736541748 C 20.95983505249023 7.863147258758545 22.77298545837402 6.049997329711914 25.00164604187012 6.049997329711914 C 27.23030471801758 6.049997329711914 29.04345512390137 7.863147258758545 29.04345512390137 10.09180736541748 L 29.04345512390137 11.91038703918457 L 29.04345512390137 11.96038722991943 L 29.09345436096191 11.96038722991943 L 31.5940055847168 11.96038722991943 C 31.94247436523438 11.96038722991943 32.22597503662109 12.24388694763184 32.22597503662109 12.59235763549805 L 32.22597503662109 22.59455680847168 C 32.22597503662109 24.44717788696289 30.7187557220459 25.95439720153809 28.86613464355469 25.95439720153809 Z M 18.81393432617188 13.22432708740234 L 18.81393432617188 13.27432727813721 L 18.81393432617188 22.59455680847168 C 18.81393432617188 23.75023651123047 19.7541561126709 24.69045639038086 20.90983581542969 24.69045639038086 L 28.86613464355469 24.69045639038086 C 30.02181434631348 24.69045639038086 30.9620361328125 23.75023651123047 30.9620361328125 22.59455680847168 L 30.9620361328125 13.27432727813721 L 30.9620361328125 13.22432708740234 L 30.91203498840332 13.22432708740234 L 29.09345436096191 13.22432708740234 L 29.04345512390137 13.22432708740234 L 29.04345512390137 13.27432727813721 L 29.04345512390137 15.77487754821777 C 29.04345512390137 16.12334632873535 28.75995445251465 16.40684700012207 28.41148567199707 16.40684700012207 C 28.06302452087402 16.40684700012207 27.77952575683594 16.12334632873535 27.77952575683594 15.77487754821777 L 27.77952575683594 13.27432727813721 L 27.77952575683594 13.22432708740234 L 27.72952461242676 13.22432708740234 L 22.27377510070801 13.22432708740234 L 22.22377586364746 13.22432708740234 L 22.22377586364746 13.27432727813721 L 22.22377586364746 15.77487754821777 C 22.22377586364746 16.12334632873535 21.94027519226074 16.40684700012207 21.59180450439453 16.40684700012207 C 21.24333572387695 16.40684700012207 20.95983505249023 16.12334632873535 20.95983505249023 15.77487754821777 L 20.95983505249023 13.27432727813721 L 20.95983505249023 13.22432708740234 L 20.90983581542969 13.22432708740234 L 18.86393547058105 13.22432708740234 L 18.81393432617188 13.22432708740234 Z M 25.00164604187012 7.313937187194824 C 23.46992492675781 7.313937187194824 22.22377586364746 8.560087203979492 22.22377586364746 10.09180736541748 L 22.22377586364746 11.91038703918457 L 22.22377586364746 11.96038722991943 L 22.27377510070801 11.96038722991943 L 27.72952461242676 11.96038722991943 L 27.77952575683594 11.96038722991943 L 27.77952575683594 11.91038703918457 L 27.77952575683594 10.09180736541748 C 27.77952575683594 8.560087203979492 26.53337478637695 7.313937187194824 25.00164604187012 7.313937187194824 Z" stroke="none"/>
      <path d="M 25.00164604187012 6.099996566772461 C 22.80055618286133 6.099996566772461 21.00983428955078 7.890716552734375 21.00983428955078 10.09180641174316 L 21.00983428955078 11.91038703918457 L 21.00983428955078 12.0103874206543 L 20.90983581542969 12.0103874206543 L 18.18196487426758 12.0103874206543 C 17.86106491088867 12.0103874206543 17.59999465942383 12.27145767211914 17.59999465942383 12.59235763549805 L 17.59999465942383 22.59455680847168 C 17.59999465942383 24.41960716247559 19.08478546142578 25.90439796447754 20.90983581542969 25.90439796447754 L 28.86613464355469 25.90439796447754 C 30.69118499755859 25.90439796447754 32.17596435546875 24.41960716247559 32.17596435546875 22.59455680847168 L 32.17596435546875 12.59235763549805 C 32.17596435546875 12.27145767211914 31.91489601135254 12.0103874206543 31.5940055847168 12.0103874206543 L 29.09345436096191 12.0103874206543 L 28.99345588684082 12.0103874206543 L 28.99345588684082 11.91038703918457 L 28.99345588684082 10.09180641174316 C 28.99345588684082 7.890716552734375 27.20273590087891 6.099996566772461 25.00164604187012 6.099996566772461 M 27.82952499389648 12.0103874206543 L 27.72952461242676 12.0103874206543 L 22.27377510070801 12.0103874206543 L 22.17377471923828 12.0103874206543 L 22.17377471923828 11.91038703918457 L 22.17377471923828 10.09180641174316 C 22.17377471923828 8.532516479492188 23.44235610961914 7.263936996459961 25.00164604187012 7.263936996459961 C 26.56094551086426 7.263936996459961 27.82952499389648 8.532516479492188 27.82952499389648 10.09180641174316 L 27.82952499389648 11.91038703918457 L 27.82952499389648 12.0103874206543 M 21.59180450439453 16.35684585571289 C 21.91270446777344 16.35684585571289 22.17377471923828 16.09576797485352 22.17377471923828 15.77486801147461 L 22.17377471923828 13.27432632446289 L 22.17377471923828 13.1743278503418 L 22.27377510070801 13.1743278503418 L 27.72952461242676 13.1743278503418 L 27.82952499389648 13.1743278503418 L 27.82952499389648 13.27432632446289 L 27.82952499389648 15.77486801147461 C 27.82952499389648 16.09576797485352 28.09059524536133 16.35684585571289 28.41148567199707 16.35684585571289 C 28.73238563537598 16.35684585571289 28.99345588684082 16.09576797485352 28.99345588684082 15.77486801147461 L 28.99345588684082 13.27432632446289 L 28.99345588684082 13.1743278503418 L 29.09345436096191 13.1743278503418 L 30.91203498840332 13.1743278503418 L 31.01203536987305 13.1743278503418 L 31.01203536987305 13.27432632446289 L 31.01203536987305 22.59455680847168 C 31.01203536987305 23.77780723571777 30.04938507080078 24.74045753479004 28.86613464355469 24.74045753479004 L 20.90983581542969 24.74045753479004 C 19.72658538818359 24.74045753479004 18.76393508911133 23.77780723571777 18.76393508911133 22.59455680847168 L 18.76393508911133 13.27432632446289 L 18.76393508911133 13.1743278503418 L 18.86393547058105 13.1743278503418 L 20.90983581542969 13.1743278503418 L 21.00983428955078 13.1743278503418 L 21.00983428955078 13.27432632446289 L 21.00983428955078 15.77486801147461 C 21.00983428955078 16.09576797485352 21.27090454101562 16.35684585571289 21.59180450439453 16.35684585571289 M 25.00164604187012 5.999998092651367 C 27.2614860534668 5.999998092651367 29.09345436096191 7.831966400146484 29.09345436096191 10.09180641174316 L 29.09345436096191 11.91038703918457 L 31.5940055847168 11.91038703918457 C 31.97064590454102 11.91038703918457 32.27596282958984 12.21571731567383 32.27596282958984 12.59235763549805 L 32.27596282958984 22.59455680847168 C 32.27596282958984 24.47775650024414 30.74933433532715 26.00439834594727 28.86613464355469 26.00439834594727 L 20.90983581542969 26.00439834594727 C 19.02663612365723 26.00439834594727 17.49999618530273 24.47775650024414 17.49999618530273 22.59455680847168 L 17.49999618530273 12.59235763549805 C 17.49999618530273 12.21571731567383 17.80532455444336 11.91038703918457 18.18196487426758 11.91038703918457 L 20.90983581542969 11.91038703918457 L 20.90983581542969 10.09180641174316 C 20.90983581542969 7.831966400146484 22.74180603027344 5.999998092651367 25.00164604187012 5.999998092651367 Z M 27.72952461242676 11.91038703918457 L 27.72952461242676 10.09180641174316 C 27.72952461242676 8.585247039794922 26.50821495056152 7.363937377929688 25.00164604187012 7.363937377929688 C 23.49508476257324 7.363937377929688 22.27377510070801 8.585247039794922 22.27377510070801 10.09180641174316 L 22.27377510070801 11.91038703918457 L 27.72952461242676 11.91038703918457 Z M 21.59180450439453 16.45684814453125 C 21.21516609191895 16.45684814453125 20.90983581542969 16.15151596069336 20.90983581542969 15.77486801147461 L 20.90983581542969 13.27432632446289 L 18.86393547058105 13.27432632446289 L 18.86393547058105 22.59455680847168 C 18.86393547058105 23.7244758605957 19.77991485595703 24.64045715332031 20.90983581542969 24.64045715332031 L 28.86613464355469 24.64045715332031 C 29.99605560302734 24.64045715332031 30.91203498840332 23.7244758605957 30.91203498840332 22.59455680847168 L 30.91203498840332 13.27432632446289 L 29.09345436096191 13.27432632446289 L 29.09345436096191 15.77486801147461 C 29.09345436096191 16.15151596069336 28.78812599182129 16.45684814453125 28.41148567199707 16.45684814453125 C 28.03484535217285 16.45684814453125 27.72952461242676 16.15151596069336 27.72952461242676 15.77486801147461 L 27.72952461242676 13.27432632446289 L 22.27377510070801 13.27432632446289 L 22.27377510070801 15.77486801147461 C 22.27377510070801 16.15151596069336 21.96844482421875 16.45684814453125 21.59180450439453 16.45684814453125 Z" stroke="none" fill="#f2f2f2"/>
    </g>
  </g>
</svg>
