<svg xmlns="http://www.w3.org/2000/svg" width="291.509" height="195.509" viewBox="0 0 291.509 195.509">
  <g id="Group_714" data-name="Group 714" transform="translate(-537 -159.491)">
    <g id="Group_506" data-name="Group 506" transform="translate(-14 124.69)">
      <circle id="Ellipse_1" data-name="Ellipse 1" cx="33.721" cy="33.721" r="33.721" transform="translate(663 162.867)" fill="#00a6ff"/>
      <g id="Group_496" data-name="Group 496" transform="translate(685.76 187.662)">
        <g id="Group_495" data-name="Group 495" transform="translate(0)">
          <path id="Path_85" data-name="Path 85" d="M269.815,53.333a1.356,1.356,0,0,0-1.918,0L252.688,68.542,247.4,63.056a1.356,1.356,0,0,0-1.918,1.918l6.25,6.446a1.357,1.357,0,0,0,1.918,0l16.168-16.168A1.356,1.356,0,0,0,269.815,53.333Z" transform="translate(-245.082 -52.936)" fill="#fff"/>
        </g>
      </g>
    </g>
    <g id="Group_713" data-name="Group 713" transform="translate(2)">
      <g id="Group_673" data-name="Group 673" transform="translate(555 213.857)">
        <g id="Group_659" data-name="Group 659" transform="translate(5.778 46.944)">
          <g id="Group_658" data-name="Group 658" transform="translate(4.031 0.393)">
            <g id="Group_643" data-name="Group 643" transform="translate(24.205 22.161)">
              <g id="Group_642" data-name="Group 642">
                <path id="Path_118" data-name="Path 118" d="M325.166,369.554c-.186-.425-2.68-12.342-13.392-20.3-3.217-2.418-9.716-5.436-9.056-7.493.179-.54,1-.8,2.142-.7,3.282.286,6.739,3.2,9.173,5.554A37.4,37.4,0,0,1,325.166,369.554Z" transform="translate(-302.672 -341.045)" fill="#efba46"/>
              </g>
            </g>
            <g id="Group_645" data-name="Group 645" transform="translate(14.127)">
              <g id="Group_644" data-name="Group 644">
                <path id="Path_119" data-name="Path 119" d="M300.828,342.765s-4.569-12.464-4.908-13.881.057-2.729.887-2.927,1.776.79,2.114,2.208S300.828,342.765,300.828,342.765Z" transform="translate(-295.799 -325.932)" fill="#efba46"/>
              </g>
            </g>
            <g id="Group_647" data-name="Group 647" transform="translate(21.29 2.441)">
              <g id="Group_646" data-name="Group 646">
                <path id="Path_120" data-name="Path 120" d="M300.684,342.467s5.582-12.044,6.345-13.286,1.971-1.89,2.7-1.443.7,1.814-.066,3.057S300.684,342.467,300.684,342.467Z" transform="translate(-300.684 -327.596)" fill="#efba46"/>
              </g>
            </g>
            <g id="Group_649" data-name="Group 649" transform="translate(22.461 14.127)">
              <g id="Group_648" data-name="Group 648">
                <path id="Path_121" data-name="Path 121" d="M301.483,340.6s12.462-4.569,13.88-4.909,2.729.057,2.928.887-.79,1.776-2.21,2.116S301.483,340.6,301.483,340.6Z" transform="translate(-301.483 -335.566)" fill="#efba46"/>
              </g>
            </g>
            <g id="Group_651" data-name="Group 651" transform="translate(20.137 22.461)">
              <g id="Group_650" data-name="Group 650">
                <path id="Path_122" data-name="Path 122" d="M299.9,341.25s4.569,12.464,4.908,13.881-.057,2.729-.886,2.927-1.777-.79-2.116-2.208S299.9,341.25,299.9,341.25Z" transform="translate(-299.898 -341.25)" fill="#efba46"/>
              </g>
            </g>
            <g id="Group_653" data-name="Group 653" transform="translate(8.436 21.983)">
              <g id="Group_652" data-name="Group 652">
                <path id="Path_123" data-name="Path 123" d="M301.486,340.924s-5.582,12.044-6.345,13.286-1.971,1.889-2.7,1.443-.7-1.814.066-3.057S301.486,340.924,301.486,340.924Z" transform="translate(-291.918 -340.924)" fill="#efba46"/>
              </g>
            </g>
            <g id="Group_655" data-name="Group 655" transform="translate(0 20.137)">
              <g id="Group_654" data-name="Group 654">
                <path id="Path_124" data-name="Path 124" d="M303,339.665s-12.464,4.569-13.881,4.909-2.729-.059-2.927-.887.79-1.776,2.208-2.116S303,339.665,303,339.665Z" transform="translate(-286.165 -339.665)" fill="#efba46"/>
              </g>
            </g>
            <g id="Group_657" data-name="Group 657" transform="translate(2.44 8.437)">
              <g id="Group_656" data-name="Group 656">
                <path id="Path_125" data-name="Path 125" d="M302.7,341.252s-12.043-5.581-13.286-6.345-1.889-1.969-1.443-2.7,1.815-.7,3.059.066S302.7,341.252,302.7,341.252Z" transform="translate(-287.829 -331.685)" fill="#efba46"/>
              </g>
            </g>
          </g>
          <path id="Path_126" data-name="Path 126" d="M304.393,328.618a1.674,1.674,0,1,1-1.674-1.674A1.674,1.674,0,0,1,304.393,328.618Z" transform="translate(-275.195 -325.067)" fill="#efba46"/>
          <circle id="Ellipse_18" data-name="Ellipse 18" cx="1.674" cy="1.674" r="1.674" transform="translate(40.959 20.734)" fill="#efba46"/>
          <circle id="Ellipse_19" data-name="Ellipse 19" cx="1.184" cy="1.184" r="1.184" transform="translate(47.858 19.55)" fill="#efba46"/>
          <path id="Path_127" data-name="Path 127" d="M292.723,330.438a1.674,1.674,0,1,1,.232,2.356A1.675,1.675,0,0,1,292.723,330.438Z" transform="translate(-279.252 -323.723)" fill="#efba46"/>
          <path id="Path_128" data-name="Path 128" d="M287.29,326.1a1.184,1.184,0,1,1,.164,1.666A1.183,1.183,0,0,1,287.29,326.1Z" transform="translate(-281.734 -325.664)" fill="#efba46"/>
          <circle id="Ellipse_20" data-name="Ellipse 20" cx="1.184" cy="1.184" r="1.184" transform="translate(22.004 40.333)" fill="#efba46"/>
          <circle id="Ellipse_21" data-name="Ellipse 21" cx="1.674" cy="1.674" r="1.674" transform="translate(9.595 26.183)" fill="#efba46"/>
          <circle id="Ellipse_22" data-name="Ellipse 22" cx="1.184" cy="1.184" r="1.184" transform="translate(0 32.126)" fill="#efba46"/>
        </g>
        <g id="Group_672" data-name="Group 672" transform="translate(-20 -10)" opacity="0.1">
          <g id="Group_671" data-name="Group 671" transform="translate(4.246)">
            <g id="Group_670" data-name="Group 670">
              <g id="Group_661" data-name="Group 661" transform="translate(13.088)">
                <g id="Group_660" data-name="Group 660">
                  <path id="Path_129" data-name="Path 129" d="M292.382,305.07c-.276-2.2-1.078-8.707-1.085-9.557-.01-1.025.469-1.859,1.067-1.865h.034c.6.006,1.078.84,1.069,1.865C293.458,296.364,292.656,302.867,292.382,305.07Z" transform="translate(-291.297 -293.648)" fill="#275682"/>
                </g>
              </g>
              <g id="Group_663" data-name="Group 663" transform="translate(13.054 16.491)">
                <g id="Group_662" data-name="Group 662">
                  <path id="Path_130" data-name="Path 130" d="M292.393,316.715c-.616.006-1.11-.821-1.119-1.846s1.119-9.974,1.119-9.974,1.126,8.949,1.117,9.974S293.007,316.721,292.393,316.715Z" transform="translate(-291.274 -304.895)" fill="#275682"/>
                </g>
              </g>
              <g id="Group_665" data-name="Group 665" transform="translate(3.933 15.497)">
                <g id="Group_664" data-name="Group 664">
                  <path id="Path_131" data-name="Path 131" d="M293.782,304.217s-5.721,7.373-6.44,8.1-1.648.984-2.075.565-.192-1.353.526-2.085S293.782,304.217,293.782,304.217Z" transform="translate(-285.053 -304.217)" fill="#275682"/>
                  <path id="Path_132" data-name="Path 132" d="M293.067,304.217s5.722,7.373,6.44,8.1,1.648.984,2.075.565.192-1.353-.526-2.085S293.067,304.217,293.067,304.217Z" transform="translate(-281.317 -304.217)" fill="#275682"/>
                </g>
              </g>
              <g id="Group_667" data-name="Group 667" transform="translate(0 13.054)">
                <g id="Group_666" data-name="Group 666">
                  <path id="Path_133" data-name="Path 133" d="M294.522,303.545s-9.26,1.167-10.285,1.176-1.861-.469-1.867-1.069.821-1.092,1.848-1.1S294.522,303.545,294.522,303.545Z" transform="translate(-282.371 -302.551)" fill="#275682"/>
                  <path id="Path_134" data-name="Path 134" d="M293.415,303.545s9.26,1.167,10.285,1.176,1.861-.469,1.867-1.069-.821-1.092-1.848-1.1S293.415,303.545,293.415,303.545Z" transform="translate(-277.221 -302.551)" fill="#275682"/>
                </g>
              </g>
              <g id="Group_669" data-name="Group 669" transform="translate(3.943 3.933)">
                <g id="Group_668" data-name="Group 668">
                  <path id="Path_135" data-name="Path 135" d="M293.931,305.059s-7.373-5.721-8.1-6.44-.984-1.648-.563-2.075,1.353-.192,2.085.526S293.931,305.059,293.931,305.059Z" transform="translate(-285.06 -296.33)" fill="#275682"/>
                  <path id="Path_136" data-name="Path 136" d="M292.963,305.059s7.373-5.721,8.1-6.44.984-1.648.563-2.075-1.353-.192-2.084.526S292.963,305.059,292.963,305.059Z" transform="translate(-281.375 -296.33)" fill="#275682"/>
                </g>
              </g>
            </g>
          </g>
          <path id="Path_137" data-name="Path 137" d="M301.153,300.408a1.279,1.279,0,1,1-1.279-1.279A1.278,1.278,0,0,1,301.153,300.408Z" transform="translate(-270.559 -291.092)" fill="#275682"/>
          <path id="Path_138" data-name="Path 138" d="M290.364,312.491a1.279,1.279,0,1,1-1.279-1.279A1.278,1.278,0,0,1,290.364,312.491Z" transform="translate(-275.59 -285.458)" fill="#275682"/>
          <path id="Path_139" data-name="Path 139" d="M282.032,307.649a1.279,1.279,0,1,1-1.279-1.279A1.278,1.278,0,0,1,282.032,307.649Z" transform="translate(-279.475 -287.716)" fill="#275682"/>
          <path id="Path_140" data-name="Path 140" d="M304,299.416a.9.9,0,1,1-.9-.9A.9.9,0,0,1,304,299.416Z" transform="translate(-268.883 -291.379)" fill="#275682"/>
          <circle id="Ellipse_23" data-name="Ellipse 23" cx="0.904" cy="0.904" r="0.904" transform="translate(28.037 28.312)" fill="#275682"/>
          <path id="Path_141" data-name="Path 141" d="M284.618,315.213a.9.9,0,1,1-.9-.9A.9.9,0,0,1,284.618,315.213Z" transform="translate(-277.92 -284.014)" fill="#275682"/>
        </g>
      </g>
      <g id="Group_705" data-name="Group 705" transform="translate(760 213.857)">
        <g id="Group_691" data-name="Group 691" transform="translate(0 46.944)">
          <g id="Group_690" data-name="Group 690" transform="translate(0 0.393)">
            <g id="Group_675" data-name="Group 675" transform="translate(0 22.161)">
              <g id="Group_674" data-name="Group 674">
                <path id="Path_142" data-name="Path 142" d="M400.584,369.554c.186-.425,2.68-12.342,13.392-20.3,3.217-2.418,9.717-5.436,9.056-7.493-.177-.54-1-.8-2.141-.7-3.282.286-6.741,3.2-9.175,5.554A37.4,37.4,0,0,0,400.584,369.554Z" transform="translate(-400.584 -341.045)" fill="#efba46"/>
              </g>
            </g>
            <g id="Group_677" data-name="Group 677" transform="translate(27.543)">
              <g id="Group_676" data-name="Group 676">
                <path id="Path_143" data-name="Path 143" d="M419.368,342.765s4.569-12.464,4.909-13.881-.059-2.729-.887-2.927-1.776.79-2.116,2.208S419.368,342.765,419.368,342.765Z" transform="translate(-419.368 -325.932)" fill="#efba46"/>
              </g>
            </g>
            <g id="Group_679" data-name="Group 679" transform="translate(15.843 2.441)">
              <g id="Group_678" data-name="Group 678">
                <path id="Path_144" data-name="Path 144" d="M420.955,342.467s-5.581-12.044-6.345-13.286-1.969-1.89-2.7-1.443-.7,1.814.066,3.057S420.955,342.467,420.955,342.467Z" transform="translate(-411.388 -327.596)" fill="#efba46"/>
              </g>
            </g>
            <g id="Group_681" data-name="Group 681" transform="translate(7.406 14.127)">
              <g id="Group_680" data-name="Group 680">
                <path id="Path_145" data-name="Path 145" d="M422.468,340.6s-12.464-4.569-13.881-4.909-2.729.057-2.927.887.79,1.776,2.208,2.116S422.468,340.6,422.468,340.6Z" transform="translate(-405.635 -335.566)" fill="#efba46"/>
              </g>
            </g>
            <g id="Group_683" data-name="Group 683" transform="translate(21.533 22.461)">
              <g id="Group_682" data-name="Group 682">
                <path id="Path_146" data-name="Path 146" d="M420.3,341.25s-4.569,12.464-4.909,13.881.057,2.729.887,2.927,1.776-.79,2.116-2.208S420.3,341.25,420.3,341.25Z" transform="translate(-415.269 -341.25)" fill="#efba46"/>
              </g>
            </g>
            <g id="Group_685" data-name="Group 685" transform="translate(28.697 21.983)">
              <g id="Group_684" data-name="Group 684">
                <path id="Path_147" data-name="Path 147" d="M420.155,340.924s5.581,12.044,6.345,13.286,1.969,1.889,2.7,1.443.7-1.814-.066-3.057S420.155,340.924,420.155,340.924Z" transform="translate(-420.155 -340.924)" fill="#efba46"/>
              </g>
            </g>
            <g id="Group_687" data-name="Group 687" transform="translate(29.867 20.137)">
              <g id="Group_686" data-name="Group 686">
                <path id="Path_148" data-name="Path 148" d="M420.953,339.665s12.464,4.569,13.881,4.909,2.729-.059,2.927-.887-.79-1.776-2.208-2.116S420.953,339.665,420.953,339.665Z" transform="translate(-420.953 -339.665)" fill="#efba46"/>
              </g>
            </g>
            <g id="Group_689" data-name="Group 689" transform="translate(29.389 8.437)">
              <g id="Group_688" data-name="Group 688">
                <path id="Path_149" data-name="Path 149" d="M420.627,341.252s12.044-5.581,13.286-6.345,1.889-1.969,1.443-2.7-1.814-.7-3.057.066S420.627,341.252,420.627,341.252Z" transform="translate(-420.627 -331.685)" fill="#efba46"/>
              </g>
            </g>
          </g>
          <path id="Path_150" data-name="Path 150" d="M415.269,328.618a1.674,1.674,0,1,0,1.674-1.674A1.675,1.675,0,0,0,415.269,328.618Z" transform="translate(-393.736 -325.067)" fill="#efba46"/>
          <circle id="Ellipse_24" data-name="Ellipse 24" cx="1.674" cy="1.674" r="1.674" transform="translate(6.424 20.734)" fill="#efba46"/>
          <circle id="Ellipse_25" data-name="Ellipse 25" cx="1.184" cy="1.184" r="1.184" transform="translate(0.506 19.55)" fill="#efba46"/>
          <path id="Path_151" data-name="Path 151" d="M426.94,330.438a1.674,1.674,0,1,0-.233,2.356A1.675,1.675,0,0,0,426.94,330.438Z" transform="translate(-389.679 -323.723)" fill="#efba46"/>
          <path id="Path_152" data-name="Path 152" d="M432.061,326.1a1.184,1.184,0,1,0-.164,1.666A1.183,1.183,0,0,0,432.061,326.1Z" transform="translate(-386.885 -325.664)" fill="#efba46"/>
          <circle id="Ellipse_26" data-name="Ellipse 26" cx="1.184" cy="1.184" r="1.184" transform="translate(26.359 40.333)" fill="#efba46"/>
          <circle id="Ellipse_27" data-name="Ellipse 27" cx="1.674" cy="1.674" r="1.674" transform="translate(37.788 26.183)" fill="#efba46"/>
          <circle id="Ellipse_28" data-name="Ellipse 28" cx="1.184" cy="1.184" r="1.184" transform="translate(48.364 32.126)" fill="#efba46"/>
        </g>
        <g id="Group_704" data-name="Group 704" transform="translate(31.393 -10)" opacity="0.1">
          <g id="Group_703" data-name="Group 703" transform="translate(2.523)">
            <g id="Group_702" data-name="Group 702">
              <g id="Group_693" data-name="Group 693" transform="translate(13.088)">
                <g id="Group_692" data-name="Group 692">
                  <path id="Path_153" data-name="Path 153" d="M426.906,305.07c.274-2.2,1.078-8.707,1.085-9.557.009-1.025-.469-1.859-1.069-1.865h-.032c-.6.006-1.078.84-1.069,1.865C425.828,296.364,426.63,302.867,426.906,305.07Z" transform="translate(-425.821 -293.648)" fill="#275682"/>
                </g>
              </g>
              <g id="Group_695" data-name="Group 695" transform="translate(13.054 16.491)">
                <g id="Group_694" data-name="Group 694">
                  <path id="Path_154" data-name="Path 154" d="M426.917,316.715c.616.006,1.108-.821,1.117-1.846s-1.117-9.974-1.117-9.974-1.128,8.949-1.119,9.974S426.3,316.721,426.917,316.715Z" transform="translate(-425.798 -304.895)" fill="#275682"/>
                </g>
              </g>
              <g id="Group_697" data-name="Group 697" transform="translate(3.934 15.497)">
                <g id="Group_696" data-name="Group 696">
                  <path id="Path_155" data-name="Path 155" d="M427.591,304.217s5.721,7.373,6.44,8.1,1.648.984,2.076.565.191-1.353-.528-2.085S427.591,304.217,427.591,304.217Z" transform="translate(-415.841 -304.217)" fill="#275682"/>
                  <path id="Path_156" data-name="Path 156" d="M428.307,304.217s-5.723,7.373-6.441,8.1-1.647.984-2.075.565-.192-1.353.526-2.085S428.307,304.217,428.307,304.217Z" transform="translate(-419.578 -304.217)" fill="#275682"/>
                </g>
              </g>
              <g id="Group_699" data-name="Group 699" transform="translate(0 13.054)">
                <g id="Group_698" data-name="Group 698">
                  <path id="Path_157" data-name="Path 157" d="M427.94,303.545s9.26,1.167,10.285,1.176,1.861-.469,1.865-1.069-.821-1.092-1.846-1.1S427.94,303.545,427.94,303.545Z" transform="translate(-411.745 -302.551)" fill="#275682"/>
                  <path id="Path_158" data-name="Path 158" d="M429.046,303.545s-9.26,1.167-10.285,1.176-1.861-.469-1.867-1.069.823-1.092,1.848-1.1S429.046,303.545,429.046,303.545Z" transform="translate(-416.895 -302.551)" fill="#275682"/>
                </g>
              </g>
              <g id="Group_701" data-name="Group 701" transform="translate(3.944 3.933)">
                <g id="Group_700" data-name="Group 700">
                  <path id="Path_159" data-name="Path 159" d="M427.487,305.059s7.373-5.721,8.1-6.44.984-1.648.565-2.075-1.353-.192-2.085.526S427.487,305.059,427.487,305.059Z" transform="translate(-415.9 -296.33)" fill="#275682"/>
                  <path id="Path_160" data-name="Path 160" d="M428.456,305.059s-7.374-5.721-8.1-6.44-.984-1.648-.565-2.075,1.353-.192,2.085.526S428.456,305.059,428.456,305.059Z" transform="translate(-419.585 -296.33)" fill="#275682"/>
                </g>
              </g>
            </g>
          </g>
          <path id="Path_161" data-name="Path 161" d="M418.257,300.408a1.279,1.279,0,1,0,1.279-1.279A1.279,1.279,0,0,0,418.257,300.408Z" transform="translate(-413.736 -291.092)" fill="#275682"/>
          <path id="Path_162" data-name="Path 162" d="M429.046,312.491a1.279,1.279,0,1,0,1.279-1.279A1.278,1.278,0,0,0,429.046,312.491Z" transform="translate(-408.706 -285.458)" fill="#275682"/>
          <path id="Path_163" data-name="Path 163" d="M437.378,307.649a1.279,1.279,0,1,0,1.279-1.279A1.279,1.279,0,0,0,437.378,307.649Z" transform="translate(-404.82 -287.716)" fill="#275682"/>
          <path id="Path_164" data-name="Path 164" d="M415.174,299.416a.9.9,0,1,0,.9-.9A.905.905,0,0,0,415.174,299.416Z" transform="translate(-415.174 -291.379)" fill="#275682"/>
          <circle id="Ellipse_29" data-name="Ellipse 29" cx="0.904" cy="0.904" r="0.904" transform="translate(5.27 28.312)" fill="#275682"/>
          <path id="Path_165" data-name="Path 165" d="M434.555,315.213a.9.9,0,1,0,.9-.9A.9.9,0,0,0,434.555,315.213Z" transform="translate(-406.137 -284.014)" fill="#275682"/>
        </g>
      </g>
      <g id="Group_712" data-name="Group 712" transform="translate(-0.298)">
        <g id="Group_638" data-name="Group 638" transform="translate(613.298 179.782)">
          <g id="Group_637" data-name="Group 637">
            <g id="Group_711" data-name="Group 711" transform="translate(29.956 72.622)">
              <rect id="Rectangle_108" data-name="Rectangle 108" width="0.75" height="43.773" fill="#cacaca" stroke="rgba(0,0,0,0)" stroke-width="1"/>
            </g>
            <path id="Path_112" data-name="Path 112" d="M332.083,322.8c4.6,3.711,6.07,8.125.139,8.069-1.144-.012-2.348-1.154-2.655-1.155-.949-.01-1.958,1.447-3.07,1.435-.031,0-.064,0-.1,0a2.322,2.322,0,0,1-1.946-2.235C324.467,327.716,328.329,319.774,332.083,322.8Z" transform="translate(-300.799 -246.297)" fill="#275682"/>
            <path id="Path_113" data-name="Path 113" d="M308.324,303.075c-.174,18.2,12.981,45.068,29.524,45.227s30.21-26.456,30.383-44.655-13.1-33.08-29.64-33.237S308.5,284.877,308.324,303.075Z" transform="translate(-308.322 -270.409)" fill="#275682"/>
            <path id="Path_114" data-name="Path 114" d="M316.888,284.713c1.434,2.088,4.717,2.324,7.334.528s3.573-4.949,2.138-7.037-4.72-2.324-7.334-.528S315.453,282.623,316.888,284.713Z" transform="translate(-304.638 -267.583)" fill="#fff" stroke="rgba(0,0,0,0)" stroke-width="1"/>
          </g>
        </g>
        <g id="Group_641" data-name="Group 641" transform="translate(694.048 179.782)">
          <g id="Group_710" data-name="Group 710" transform="translate(-11.794 60.622)">
            <rect id="Rectangle_108-2" data-name="Rectangle 108" width="0.75" height="43.773" fill="#cacaca"/>
          </g>
          <g id="Group_639" data-name="Group 639" transform="translate(30.206 72.622)">
            <rect id="Rectangle_108-3" data-name="Rectangle 108" width="0.75" height="43.773" fill="#cacaca"/>
          </g>
          <g id="Group_640" data-name="Group 640">
            <path id="Path_115" data-name="Path 115" d="M384.2,322.8c-4.6,3.711-6.07,8.125-.139,8.069,1.144-.012,2.348-1.154,2.655-1.155.949-.01,1.958,1.447,3.072,1.435.029,0,.063,0,.094,0a2.322,2.322,0,0,0,1.946-2.235C391.817,327.716,387.955,319.774,384.2,322.8Z" transform="translate(-355.575 -246.297)" fill="#275682"/>
            <path id="Path_116" data-name="Path 116" d="M423.3,303.075c.173,18.2-12.983,45.068-29.525,45.227s-30.209-26.456-30.383-44.655,13.1-33.08,29.64-33.237S423.129,284.877,423.3,303.075Z" transform="translate(-363.393 -270.409)" fill="#275682"/>
            <path id="Path_117" data-name="Path 117" d="M399.121,284.713c-1.434,2.088-4.717,2.324-7.333.528s-3.575-4.949-2.139-7.037,4.72-2.324,7.334-.528S400.557,282.623,399.121,284.713Z" transform="translate(-351.461 -267.583)" fill="#fff"/>
          </g>
        </g>
        <g id="Group_708" data-name="Group 708" transform="translate(649.168 159.491)">
          <g id="Group_707" data-name="Group 707">
            <path id="Path_166" data-name="Path 166" d="M355.167,312.927c-4.949,3.991-6.529,8.739-.151,8.679,1.23-.012,2.525-1.241,2.856-1.243,1.021-.01,2.106,1.557,3.3,1.545.032,0,.068,0,.1-.006a2.494,2.494,0,0,0,2.092-2.4C363.357,318.21,359.2,309.669,355.167,312.927Z" transform="translate(-324.375 -230.635)" fill="#1e95d6"/>
            <path id="Path_167" data-name="Path 167" d="M397.223,291.706c.186,19.574-13.964,48.476-31.757,48.646s-32.493-28.456-32.679-48.03,14.087-35.58,31.88-35.75S397.037,272.133,397.223,291.706Z" transform="translate(-332.785 -256.571)" fill="#00a6ff"/>
            <path id="Path_168" data-name="Path 168" d="M371.214,271.955c-1.544,2.246-5.075,2.5-7.889.569s-3.843-5.323-2.3-7.569,5.076-2.5,7.89-.567S372.758,269.709,371.214,271.955Z" transform="translate(-319.951 -253.532)" fill="#fff"/>
          </g>
        </g>
      </g>
    </g>
  </g>
</svg>
