<svg xmlns="http://www.w3.org/2000/svg" width="12.107" height="14.973" viewBox="0 0 12.107 14.973">
  <g id="Group_608" data-name="Group 608" transform="translate(0)">
    <path id="Path_99" data-name="Path 99" d="M56.552,1.794H54.222a2.026,2.026,0,0,0-4.026,0H47.865A1.712,1.712,0,0,0,46.155,3.5v.088a1.712,1.712,0,0,0,1.081,1.589v8.081a1.713,1.713,0,0,0,1.71,1.711h6.525a1.713,1.713,0,0,0,1.71-1.711V5.181a1.712,1.712,0,0,0,1.081-1.589V3.5A1.713,1.713,0,0,0,56.552,1.794ZM52.209.811a1.218,1.218,0,0,1,1.193.983H51.016A1.217,1.217,0,0,1,52.209.811Zm4.162,12.451a.9.9,0,0,1-.9.9H48.946a.9.9,0,0,1-.9-.9V5.3h8.323Zm1.081-9.67a.9.9,0,0,1-.9.9H47.865a.9.9,0,0,1-.9-.9V3.5a.9.9,0,0,1,.9-.9h8.687a.9.9,0,0,1,.9.9v.088Z" transform="translate(-46.155)" fill="#fff"/>
    <path id="Path_100" data-name="Path 100" d="M158.481,254.949a.406.406,0,0,0,.406-.406v-4.567a.406.406,0,1,0-.811,0v4.567A.406.406,0,0,0,158.481,254.949Z" transform="translate(-154.601 -241.825)" fill="#fff"/>
    <path id="Path_101" data-name="Path 101" d="M228.551,254.949a.406.406,0,0,0,.406-.406v-4.567a.406.406,0,1,0-.811,0v4.567A.406.406,0,0,0,228.551,254.949Z" transform="translate(-222.497 -241.825)" fill="#fff"/>
    <path id="Path_102" data-name="Path 102" d="M298.62,254.949a.406.406,0,0,0,.406-.406v-4.567a.406.406,0,1,0-.811,0v4.567A.406.406,0,0,0,298.62,254.949Z" transform="translate(-290.391 -241.825)" fill="#fff"/>
  </g>
</svg>
